<svg xmlns="http://www.w3.org/2000/svg" viewBox="0 0 1200 750" role="img" aria-label="Resultado · ENEM">
  <rect width="1200" height="750" fill="#F6F8FB"/>
  <!-- sidebar -->
  <rect x="0" y="0" width="200" height="750" fill="#0B1033"/>
  <rect x="24" y="28" width="30" height="30" rx="8" fill="#FFC400"/>
  <rect x="62" y="36" width="86" height="14" rx="7" fill="#FFFFFF" opacity=".92"/>
  <rect x="14" y="92" width="172" height="40" rx="10" fill="#FFFFFF" opacity=".12"/>
      <rect x="28" y="104" width="16" height="16" rx="4" fill="#FFFFFF" opacity=".95"/>
      <rect x="54" y="106" width="104" height="12" rx="6" fill="#FFFFFF" opacity=".95"/>
      <rect x="28" y="154" width="16" height="16" rx="4" fill="#FFFFFF" opacity=".45"/>
      <rect x="54" y="156" width="84" height="12" rx="6" fill="#FFFFFF" opacity=".4"/>
      <rect x="28" y="204" width="16" height="16" rx="4" fill="#FFFFFF" opacity=".45"/>
      <rect x="54" y="206" width="84" height="12" rx="6" fill="#FFFFFF" opacity=".4"/>
      <rect x="28" y="254" width="16" height="16" rx="4" fill="#FFFFFF" opacity=".45"/>
      <rect x="54" y="256" width="84" height="12" rx="6" fill="#FFFFFF" opacity=".4"/>
      <rect x="28" y="304" width="16" height="16" rx="4" fill="#FFFFFF" opacity=".45"/>
      <rect x="54" y="306" width="84" height="12" rx="6" fill="#FFFFFF" opacity=".4"/>
  <rect x="24" y="690" width="152" height="36" rx="10" fill="#FFFFFF" opacity=".10"/>
  <!-- topbar -->
  <rect x="200" y="0" width="1000" height="72" fill="#FFFFFF"/>
  <line x1="200" y1="72" x2="1200" y2="72" stroke="#E4E7EC"/>
  <text x="232" y="44" font-family="Verdana, sans-serif" font-size="20" font-weight="700" fill="#0B1033">Resultado · ENEM</text>
  <rect x="970" y="24" width="120" height="26" rx="13" fill="#1E50E0" opacity=".12"/>
  <circle cx="1130" cy="36" r="16" fill="#1E50E0"/>
  <text x="232" y="116" font-family="Verdana, sans-serif" font-size="20" font-weight="800" fill="#0B1033">Resultado · 2º Simulado ENEM</text><rect x="224" y="150" width="380" height="250" rx="16" fill="#FFFFFF" stroke="#E4E7EC"/><text x="248" y="186" font-family="Verdana, sans-serif" font-size="13" font-weight="400" fill="#475569">Sua nota TRI</text><text x="248" y="250" font-family="Verdana,sans-serif" font-size="58" font-weight="800" fill="#0B1033">742</text><rect x="248" y="270" width="168" height="26" rx="13" fill="#E6F6EC"/><text x="266" y="288" font-family="Verdana, sans-serif" font-size="12" font-weight="700" fill="#1BA559">▲ acima da média</text><text x="248" y="332" font-family="Verdana, sans-serif" font-size="11" font-weight="400" fill="#9AA6B2">0</text><text x="566" y="332" text-anchor="end" font-family="Verdana,sans-serif" font-size="11" fill="#9AA6B2">1000</text><rect x="248" y="342" width="318" height="12" rx="6" fill="#F6F8FB"/><rect x="248" y="342" width="235.956" height="12" rx="6" fill="#1BA559"/><circle cx="483.956" cy="348" r="9" fill="#FFFFFF" stroke="#1BA559" stroke-width="3"/><rect x="624" y="150" width="552" height="250" rx="16" fill="#FFFFFF" stroke="#E4E7EC"/><text x="648" y="186" font-family="Verdana, sans-serif" font-size="14" font-weight="700" fill="#0B1033">Por área de conhecimento</text><text x="648" y="226" font-family="Verdana, sans-serif" font-size="13" font-weight="400" fill="#475569">Linguagens</text><rect x="800" y="214" width="280" height="16" rx="8" fill="#F6F8FB"/><rect x="800" y="214" width="201.6" height="16" rx="8" fill="#1BA559"/><text x="1152" y="227" text-anchor="end" font-family="Verdana,sans-serif" font-size="13" font-weight="700" fill="#0B1033">720</text><text x="648" y="260" font-family="Verdana, sans-serif" font-size="13" font-weight="400" fill="#475569">Matemática</text><rect x="800" y="248" width="280" height="16" rx="8" fill="#F6F8FB"/><rect x="800" y="248" width="212.8" height="16" rx="8" fill="#1E50E0"/><text x="1152" y="261" text-anchor="end" font-family="Verdana,sans-serif" font-size="13" font-weight="700" fill="#0B1033">760</text><text x="648" y="294" font-family="Verdana, sans-serif" font-size="13" font-weight="400" fill="#475569">C. Humanas</text><rect x="800" y="282" width="280" height="16" rx="8" fill="#F6F8FB"/><rect x="800" y="282" width="196" height="16" rx="8" fill="#1BA559"/><text x="1152" y="295" text-anchor="end" font-family="Verdana,sans-serif" font-size="13" font-weight="700" fill="#0B1033">700</text><text x="648" y="328" font-family="Verdana, sans-serif" font-size="13" font-weight="400" fill="#475569">C. da Natureza</text><rect x="800" y="316" width="280" height="16" rx="8" fill="#F6F8FB"/><rect x="800" y="316" width="190.4" height="16" rx="8" fill="#1E50E0"/><text x="1152" y="329" text-anchor="end" font-family="Verdana,sans-serif" font-size="13" font-weight="700" fill="#0B1033">680</text><text x="648" y="362" font-family="Verdana, sans-serif" font-size="13" font-weight="400" fill="#475569">Redação</text><rect x="800" y="350" width="280" height="16" rx="8" fill="#F6F8FB"/><rect x="800" y="350" width="257.6" height="16" rx="8" fill="#1BA559"/><text x="1152" y="363" text-anchor="end" font-family="Verdana,sans-serif" font-size="13" font-weight="700" fill="#0B1033">920</text><rect x="224" y="420" width="460" height="150" rx="16" fill="#FFFFFF" stroke="#E4E7EC"/><text x="248" y="454" font-family="Verdana, sans-serif" font-size="13" font-weight="400" fill="#475569">Sua posição</text><text x="248" y="514" font-family="Verdana,sans-serif" font-size="44" font-weight="800" fill="#1E50E0">#12</text><text x="330" y="514" font-family="Verdana, sans-serif" font-size="13" font-weight="400" fill="#475569">na sua turma</text><text x="330" y="532" font-family="Verdana, sans-serif" font-size="13" font-weight="400" fill="#475569">de 38 alunos</text><rect x="704" y="420" width="472" height="150" rx="16" fill="#FFFFFF" stroke="#E4E7EC"/><text x="728" y="454" font-family="Verdana, sans-serif" font-size="13" font-weight="400" fill="#475569">Evolução vs. simulado anterior</text><polyline points="752,526 828,513 904,500 980,487 1056,474 1132,461" fill="none" stroke="#1BA559" stroke-width="4" stroke-linecap="round" stroke-linejoin="round"/><text x="1152" y="478" text-anchor="end" font-family="Verdana,sans-serif" font-size="22" font-weight="800" fill="#1BA559">+38</text>
</svg>