<svg xmlns="http://www.w3.org/2000/svg" viewBox="0 0 1200 750" role="img" aria-label="Trilha de estudos">
  <rect width="1200" height="750" fill="#F6F8FB"/>
  <!-- sidebar -->
  <rect x="0" y="0" width="200" height="750" fill="#0B1033"/>
  <rect x="24" y="28" width="30" height="30" rx="8" fill="#FFC400"/>
  <rect x="62" y="36" width="86" height="14" rx="7" fill="#FFFFFF" opacity=".92"/>
  
      <rect x="28" y="104" width="16" height="16" rx="4" fill="#FFFFFF" opacity=".45"/>
      <rect x="54" y="106" width="84" height="12" rx="6" fill="#FFFFFF" opacity=".4"/><rect x="14" y="142" width="172" height="40" rx="10" fill="#FFFFFF" opacity=".12"/>
      <rect x="28" y="154" width="16" height="16" rx="4" fill="#FFFFFF" opacity=".95"/>
      <rect x="54" y="156" width="104" height="12" rx="6" fill="#FFFFFF" opacity=".95"/>
      <rect x="28" y="204" width="16" height="16" rx="4" fill="#FFFFFF" opacity=".45"/>
      <rect x="54" y="206" width="84" height="12" rx="6" fill="#FFFFFF" opacity=".4"/>
      <rect x="28" y="254" width="16" height="16" rx="4" fill="#FFFFFF" opacity=".45"/>
      <rect x="54" y="256" width="84" height="12" rx="6" fill="#FFFFFF" opacity=".4"/>
      <rect x="28" y="304" width="16" height="16" rx="4" fill="#FFFFFF" opacity=".45"/>
      <rect x="54" y="306" width="84" height="12" rx="6" fill="#FFFFFF" opacity=".4"/>
  <rect x="24" y="690" width="152" height="36" rx="10" fill="#FFFFFF" opacity=".10"/>
  <!-- topbar -->
  <rect x="200" y="0" width="1000" height="72" fill="#FFFFFF"/>
  <line x1="200" y1="72" x2="1200" y2="72" stroke="#E4E7EC"/>
  <text x="232" y="44" font-family="Verdana, sans-serif" font-size="20" font-weight="700" fill="#0B1033">Trilha de estudos</text>
  <rect x="970" y="24" width="120" height="26" rx="13" fill="#1BA559" opacity=".12"/>
  <circle cx="1130" cy="36" r="16" fill="#1E50E0"/>
  <text x="232" y="116" font-family="Verdana, sans-serif" font-size="20" font-weight="800" fill="#0B1033">Olá, Ana 👋  ·  Minha trilha de estudos</text><rect x="224" y="150" width="952" height="92" rx="16" fill="#FFFFFF" stroke="#E4E7EC"/><text x="248" y="184" font-family="Verdana, sans-serif" font-size="13" font-weight="400" fill="#475569">Progresso da trilha</text><rect x="248" y="202" width="720" height="16" rx="8" fill="#F6F8FB"/><rect x="248" y="202" width="396.00000000000006" height="16" rx="8" fill="#1BA559"/><text x="1152" y="204" text-anchor="end" font-family="Verdana,sans-serif" font-size="30" font-weight="800" fill="#1BA559">55%</text><rect x="224" y="262" width="600" height="308" rx="16" fill="#FFFFFF" stroke="#E4E7EC"/><text x="248" y="296" font-family="Verdana, sans-serif" font-size="14" font-weight="700" fill="#0B1033">Seu caminho</text><line x1="270" y1="344" x2="270" y2="512" stroke="#E4E7EC" stroke-width="3"/><circle cx="270" cy="344" r="14" fill="#1BA559"/><path d="M264 344 l4 4 8 -8" stroke="#FFFFFF" stroke-width="2.4" fill="none" stroke-linecap="round" stroke-linejoin="round"/><text x="300" y="343" font-family="Verdana, sans-serif" font-size="14" font-weight="700" fill="#0B1033">Funções</text><text x="300" y="361" font-family="Verdana, sans-serif" font-size="12" font-weight="400" fill="#475569">Concluído</text><circle cx="270" cy="400" r="14" fill="#1E50E0"/><path d="M266 395 v10 l8 -5 z" fill="#FFFFFF"/><text x="300" y="399" font-family="Verdana, sans-serif" font-size="14" font-weight="700" fill="#0B1033">Interpretação de texto</text><text x="300" y="417" font-family="Verdana, sans-serif" font-size="12" font-weight="400" fill="#475569">Em curso</text><circle cx="270" cy="456" r="14" fill="#9AA6B2"/><text x="300" y="455" font-family="Verdana, sans-serif" font-size="14" font-weight="700" fill="#0B1033">Geometria</text><text x="300" y="473" font-family="Verdana, sans-serif" font-size="12" font-weight="400" fill="#475569">Próximo</text><circle cx="270" cy="512" r="14" fill="#9AA6B2"/><text x="300" y="511" font-family="Verdana, sans-serif" font-size="14" font-weight="700" fill="#0B1033">Redação ENEM</text><text x="300" y="529" font-family="Verdana, sans-serif" font-size="12" font-weight="400" fill="#475569">Próximo</text><rect x="848" y="262" width="328" height="308" rx="16" fill="#FFFFFF" stroke="#E4E7EC"/><rect x="872" y="292" width="150" height="26" rx="13" fill="#E6F6EC"/><text x="888" y="310" font-family="Verdana, sans-serif" font-size="12" font-weight="700" fill="#1BA559">Recomendado</text><text x="872" y="348" font-family="Verdana, sans-serif" font-size="13" font-weight="400" fill="#475569">Próximo passo</text><text x="872" y="376" font-family="Verdana, sans-serif" font-size="16" font-weight="700" fill="#0B1033">Interpretação de texto</text><text x="872" y="400" font-family="Verdana, sans-serif" font-size="12" font-weight="400" fill="#475569">8 atividades · 25 min</text><rect x="872" y="430" width="280" height="48" rx="24" fill="#FFC400"/><text x="936" y="460" font-family="Verdana, sans-serif" font-size="14" font-weight="700" fill="#0B1033">Continuar trilha</text><text x="872" y="524" font-family="Verdana, sans-serif" font-size="13" font-weight="600" fill="#0B1033">🔥 Ofensiva de 6 dias</text>
</svg>