<svg xmlns="http://www.w3.org/2000/svg" viewBox="0 0 1200 750" role="img" aria-label="Simulado online">
  <rect width="1200" height="750" fill="#F6F8FB"/>
  <!-- sidebar -->
  <rect x="0" y="0" width="200" height="750" fill="#0B1033"/>
  <rect x="24" y="28" width="30" height="30" rx="8" fill="#FFC400"/>
  <rect x="62" y="36" width="86" height="14" rx="7" fill="#FFFFFF" opacity=".92"/>
  <rect x="14" y="92" width="172" height="40" rx="10" fill="#FFFFFF" opacity=".12"/>
      <rect x="28" y="104" width="16" height="16" rx="4" fill="#FFFFFF" opacity=".95"/>
      <rect x="54" y="106" width="104" height="12" rx="6" fill="#FFFFFF" opacity=".95"/>
      <rect x="28" y="154" width="16" height="16" rx="4" fill="#FFFFFF" opacity=".45"/>
      <rect x="54" y="156" width="84" height="12" rx="6" fill="#FFFFFF" opacity=".4"/>
      <rect x="28" y="204" width="16" height="16" rx="4" fill="#FFFFFF" opacity=".45"/>
      <rect x="54" y="206" width="84" height="12" rx="6" fill="#FFFFFF" opacity=".4"/>
      <rect x="28" y="254" width="16" height="16" rx="4" fill="#FFFFFF" opacity=".45"/>
      <rect x="54" y="256" width="84" height="12" rx="6" fill="#FFFFFF" opacity=".4"/>
      <rect x="28" y="304" width="16" height="16" rx="4" fill="#FFFFFF" opacity=".45"/>
      <rect x="54" y="306" width="84" height="12" rx="6" fill="#FFFFFF" opacity=".4"/>
  <rect x="24" y="690" width="152" height="36" rx="10" fill="#FFFFFF" opacity=".10"/>
  <!-- topbar -->
  <rect x="200" y="0" width="1000" height="72" fill="#FFFFFF"/>
  <line x1="200" y1="72" x2="1200" y2="72" stroke="#E4E7EC"/>
  <text x="232" y="44" font-family="Verdana, sans-serif" font-size="20" font-weight="700" fill="#0B1033">Simulado online</text>
  <rect x="970" y="24" width="120" height="26" rx="13" fill="#1E50E0" opacity=".12"/>
  <circle cx="1130" cy="36" r="16" fill="#1E50E0"/>
  <text x="232" y="116" font-family="Verdana, sans-serif" font-size="20" font-weight="800" fill="#0B1033">Simulado · em andamento</text><rect x="224" y="150" width="300" height="120" rx="16" fill="#FFFFFF" stroke="#E4E7EC"/><text x="248" y="184" font-family="Verdana, sans-serif" font-size="13" font-weight="400" fill="#475569">Tempo restante</text><text x="248" y="234" font-family="Verdana,sans-serif" font-size="40" font-weight="800" fill="#1E50E0">01:32:45</text><rect x="540" y="150" width="400" height="120" rx="16" fill="#FFFFFF" stroke="#E4E7EC"/><text x="564" y="184" font-family="Verdana, sans-serif" font-size="13" font-weight="400" fill="#475569">Progresso</text><text x="564" y="212" font-family="Verdana, sans-serif" font-size="16" font-weight="700" fill="#0B1033">Questão 27 de 90</text><rect x="564" y="230" width="352" height="14" rx="7" fill="#F6F8FB"/><rect x="564" y="230" width="105.6" height="14" rx="7" fill="#1BA559"/><rect x="956" y="150" width="220" height="120" rx="16" fill="#FFFFFF" stroke="#E4E7EC"/><rect x="980" y="182" width="172" height="48" rx="24" fill="#FFC400"/><text x="1018" y="212" font-family="Verdana, sans-serif" font-size="14" font-weight="700" fill="#0B1033">Finalizar</text><text x="980" y="252" font-family="Verdana, sans-serif" font-size="11" font-weight="400" fill="#475569">Salvo automaticamente</text><rect x="224" y="290" width="620" height="280" rx="16" fill="#FFFFFF" stroke="#E4E7EC"/><rect x="248" y="322" width="560" height="14" rx="7" fill="#0B1033"/><rect x="248" y="346" width="470" height="12" rx="6" fill="#E4E7EC"/><rect x="248" y="384" width="572" height="34" rx="10" fill="#FFFFFF" stroke="#E4E7EC"/><circle cx="270" cy="401" r="9" fill="none" stroke="#E4E7EC" stroke-width="2"/><rect x="292" y="395" width="300" height="12" rx="6" fill="#E4E7EC"/><rect x="248" y="428" width="572" height="34" rx="10" fill="#FFFFFF" stroke="#E4E7EC"/><circle cx="270" cy="445" r="9" fill="#1BA559" stroke="#1BA559" stroke-width="2"/><rect x="292" y="439" width="300" height="12" rx="6" fill="#E4E7EC"/><rect x="248" y="472" width="572" height="34" rx="10" fill="#FFFFFF" stroke="#E4E7EC"/><circle cx="270" cy="489" r="9" fill="none" stroke="#E4E7EC" stroke-width="2"/><rect x="292" y="483" width="300" height="12" rx="6" fill="#E4E7EC"/><rect x="248" y="516" width="572" height="34" rx="10" fill="#FFFFFF" stroke="#E4E7EC"/><circle cx="270" cy="533" r="9" fill="none" stroke="#E4E7EC" stroke-width="2"/><rect x="292" y="527" width="300" height="12" rx="6" fill="#E4E7EC"/><rect x="868" y="290" width="308" height="280" rx="16" fill="#FFFFFF" stroke="#E4E7EC"/><circle cx="892" cy="318" r="5" fill="#1BA559"/><text x="908" y="323" font-family="Verdana, sans-serif" font-size="13" font-weight="700" fill="#0B1033">Ao vivo</text><text x="1152" y="323" text-anchor="end" font-family="Verdana,sans-serif" font-size="12" fill="#475569">312 online</text><circle cx="892" cy="358" r="12" fill="#1BA559" opacity=".25"/><rect x="914" y="350" width="150" height="10" rx="5" fill="#E4E7EC"/><rect x="914" y="366" width="92" height="8" rx="4" fill="#E4E7EC"/><rect x="1086" y="348" width="66" height="18" rx="9" fill="#E6F6EC"/><circle cx="892" cy="400" r="12" fill="#1E50E0" opacity=".25"/><rect x="914" y="392" width="150" height="10" rx="5" fill="#E4E7EC"/><rect x="914" y="408" width="92" height="8" rx="4" fill="#E4E7EC"/><rect x="1086" y="390" width="66" height="18" rx="9" fill="#E8EEFD"/><circle cx="892" cy="442" r="12" fill="#FFC400" opacity=".25"/><rect x="914" y="434" width="150" height="10" rx="5" fill="#E4E7EC"/><rect x="914" y="450" width="92" height="8" rx="4" fill="#E4E7EC"/><rect x="1086" y="432" width="66" height="18" rx="9" fill="#E6F6EC"/><circle cx="892" cy="484" r="12" fill="#1BA559" opacity=".25"/><rect x="914" y="476" width="150" height="10" rx="5" fill="#E4E7EC"/><rect x="914" y="492" width="92" height="8" rx="4" fill="#E4E7EC"/><rect x="1086" y="474" width="66" height="18" rx="9" fill="#E8EEFD"/><circle cx="892" cy="526" r="12" fill="#1E50E0" opacity=".25"/><rect x="914" y="518" width="150" height="10" rx="5" fill="#E4E7EC"/><rect x="914" y="534" width="92" height="8" rx="4" fill="#E4E7EC"/><rect x="1086" y="516" width="66" height="18" rx="9" fill="#E6F6EC"/>
</svg>