<svg xmlns="http://www.w3.org/2000/svg" viewBox="0 0 1200 750" role="img" aria-label="Aplicação impressa: caderno, folha de respostas, malote e leitor OMR"><rect width="1200" height="750" fill="#F6F8FB"/><rect x="118" y="159" width="344" height="464" rx="12" fill="#FFFFFF" stroke="#E4E7EC"/><rect x="108" y="150" width="350" height="480" rx="12" fill="#FFFFFF" stroke="#E4E7EC"/><rect x="108" y="150" width="350" height="54" rx="12" fill="#1BA559" opacity=".12"/><text x="134" y="185" font-family="Verdana,sans-serif" font-size="15" font-weight="700" fill="#0B1033">Prova · Caderno 1</text><text x="134" y="244" font-family="Verdana,sans-serif" font-size="13" font-weight="700" fill="#475569">1.</text><rect x="158" y="233" width="268" height="11" rx="5" fill="#E4E7EC"/><rect x="158" y="248" width="210" height="11" rx="5" fill="#E4E7EC"/><circle cx="168" cy="274" r="7" fill="none" stroke="#E4E7EC" stroke-width="2"/><circle cx="228" cy="274" r="7" fill="none" stroke="#E4E7EC" stroke-width="2"/><circle cx="288" cy="274" r="7" fill="none" stroke="#E4E7EC" stroke-width="2"/><circle cx="348" cy="274" r="7" fill="none" stroke="#E4E7EC" stroke-width="2"/><text x="134" y="318" font-family="Verdana,sans-serif" font-size="13" font-weight="700" fill="#475569">2.</text><rect x="158" y="307" width="268" height="11" rx="5" fill="#E4E7EC"/><rect x="158" y="322" width="210" height="11" rx="5" fill="#E4E7EC"/><circle cx="168" cy="348" r="7" fill="none" stroke="#E4E7EC" stroke-width="2"/><circle cx="228" cy="348" r="7" fill="none" stroke="#E4E7EC" stroke-width="2"/><circle cx="288" cy="348" r="7" fill="none" stroke="#E4E7EC" stroke-width="2"/><circle cx="348" cy="348" r="7" fill="none" stroke="#E4E7EC" stroke-width="2"/><text x="134" y="392" font-family="Verdana,sans-serif" font-size="13" font-weight="700" fill="#475569">3.</text><rect x="158" y="381" width="268" height="11" rx="5" fill="#E4E7EC"/><rect x="158" y="396" width="210" height="11" rx="5" fill="#E4E7EC"/><circle cx="168" cy="422" r="7" fill="none" stroke="#E4E7EC" stroke-width="2"/><circle cx="228" cy="422" r="7" fill="none" stroke="#E4E7EC" stroke-width="2"/><circle cx="288" cy="422" r="7" fill="none" stroke="#E4E7EC" stroke-width="2"/><circle cx="348" cy="422" r="7" fill="none" stroke="#E4E7EC" stroke-width="2"/><text x="134" y="466" font-family="Verdana,sans-serif" font-size="13" font-weight="700" fill="#475569">4.</text><rect x="158" y="455" width="268" height="11" rx="5" fill="#E4E7EC"/><rect x="158" y="470" width="210" height="11" rx="5" fill="#E4E7EC"/><circle cx="168" cy="496" r="7" fill="none" stroke="#E4E7EC" stroke-width="2"/><circle cx="228" cy="496" r="7" fill="none" stroke="#E4E7EC" stroke-width="2"/><circle cx="288" cy="496" r="7" fill="none" stroke="#E4E7EC" stroke-width="2"/><circle cx="348" cy="496" r="7" fill="none" stroke="#E4E7EC" stroke-width="2"/><text x="134" y="540" font-family="Verdana,sans-serif" font-size="13" font-weight="700" fill="#475569">5.</text><rect x="158" y="529" width="268" height="11" rx="5" fill="#E4E7EC"/><rect x="158" y="544" width="210" height="11" rx="5" fill="#E4E7EC"/><circle cx="168" cy="570" r="7" fill="none" stroke="#E4E7EC" stroke-width="2"/><circle cx="228" cy="570" r="7" fill="none" stroke="#E4E7EC" stroke-width="2"/><circle cx="288" cy="570" r="7" fill="none" stroke="#E4E7EC" stroke-width="2"/><circle cx="348" cy="570" r="7" fill="none" stroke="#E4E7EC" stroke-width="2"/><rect x="494" y="150" width="300" height="480" rx="12" fill="#FFFFFF" stroke="#E4E7EC"/><rect x="494" y="150" width="300" height="48" rx="12" fill="#1E50E0" opacity=".12"/><text x="518" y="180" font-family="Verdana,sans-serif" font-size="14" font-weight="700" fill="#0B1033">Folha de respostas</text><text x="518" y="237" font-family="Verdana,sans-serif" font-size="12" fill="#475569">1</text><circle cx="552" cy="232" r="10" fill="#FFFFFF" stroke="#E4E7EC" stroke-width="2"/><circle cx="596" cy="232" r="10" fill="#0B1033" stroke="#0B1033" stroke-width="2"/><circle cx="640" cy="232" r="10" fill="#FFFFFF" stroke="#E4E7EC" stroke-width="2"/><circle cx="684" cy="232" r="10" fill="#FFFFFF" stroke="#E4E7EC" stroke-width="2"/><circle cx="728" cy="232" r="10" fill="#FFFFFF" stroke="#E4E7EC" stroke-width="2"/><text x="518" y="279" font-family="Verdana,sans-serif" font-size="12" fill="#475569">2</text><circle cx="552" cy="274" r="10" fill="#FFFFFF" stroke="#E4E7EC" stroke-width="2"/><circle cx="596" cy="274" r="10" fill="#FFFFFF" stroke="#E4E7EC" stroke-width="2"/><circle cx="640" cy="274" r="10" fill="#FFFFFF" stroke="#E4E7EC" stroke-width="2"/><circle cx="684" cy="274" r="10" fill="#0B1033" stroke="#0B1033" stroke-width="2"/><circle cx="728" cy="274" r="10" fill="#FFFFFF" stroke="#E4E7EC" stroke-width="2"/><text x="518" y="321" font-family="Verdana,sans-serif" font-size="12" fill="#475569">3</text><circle cx="552" cy="316" r="10" fill="#0B1033" stroke="#0B1033" stroke-width="2"/><circle cx="596" cy="316" r="10" fill="#FFFFFF" stroke="#E4E7EC" stroke-width="2"/><circle cx="640" cy="316" r="10" fill="#FFFFFF" stroke="#E4E7EC" stroke-width="2"/><circle cx="684" cy="316" r="10" fill="#FFFFFF" stroke="#E4E7EC" stroke-width="2"/><circle cx="728" cy="316" r="10" fill="#FFFFFF" stroke="#E4E7EC" stroke-width="2"/><text x="518" y="363" font-family="Verdana,sans-serif" font-size="12" fill="#475569">4</text><circle cx="552" cy="358" r="10" fill="#FFFFFF" stroke="#E4E7EC" stroke-width="2"/><circle cx="596" cy="358" r="10" fill="#FFFFFF" stroke="#E4E7EC" stroke-width="2"/><circle cx="640" cy="358" r="10" fill="#0B1033" stroke="#0B1033" stroke-width="2"/><circle cx="684" cy="358" r="10" fill="#FFFFFF" stroke="#E4E7EC" stroke-width="2"/><circle cx="728" cy="358" r="10" fill="#FFFFFF" stroke="#E4E7EC" stroke-width="2"/><text x="518" y="405" font-family="Verdana,sans-serif" font-size="12" fill="#475569">5</text><circle cx="552" cy="400" r="10" fill="#FFFFFF" stroke="#E4E7EC" stroke-width="2"/><circle cx="596" cy="400" r="10" fill="#FFFFFF" stroke="#E4E7EC" stroke-width="2"/><circle cx="640" cy="400" r="10" fill="#FFFFFF" stroke="#E4E7EC" stroke-width="2"/><circle cx="684" cy="400" r="10" fill="#FFFFFF" stroke="#E4E7EC" stroke-width="2"/><circle cx="728" cy="400" r="10" fill="#0B1033" stroke="#0B1033" stroke-width="2"/><text x="518" y="447" font-family="Verdana,sans-serif" font-size="12" fill="#475569">6</text><circle cx="552" cy="442" r="10" fill="#FFFFFF" stroke="#E4E7EC" stroke-width="2"/><circle cx="596" cy="442" r="10" fill="#0B1033" stroke="#0B1033" stroke-width="2"/><circle cx="640" cy="442" r="10" fill="#FFFFFF" stroke="#E4E7EC" stroke-width="2"/><circle cx="684" cy="442" r="10" fill="#FFFFFF" stroke="#E4E7EC" stroke-width="2"/><circle cx="728" cy="442" r="10" fill="#FFFFFF" stroke="#E4E7EC" stroke-width="2"/><text x="518" y="489" font-family="Verdana,sans-serif" font-size="12" fill="#475569">7</text><circle cx="552" cy="484" r="10" fill="#FFFFFF" stroke="#E4E7EC" stroke-width="2"/><circle cx="596" cy="484" r="10" fill="#FFFFFF" stroke="#E4E7EC" stroke-width="2"/><circle cx="640" cy="484" r="10" fill="#FFFFFF" stroke="#E4E7EC" stroke-width="2"/><circle cx="684" cy="484" r="10" fill="#0B1033" stroke="#0B1033" stroke-width="2"/><circle cx="728" cy="484" r="10" fill="#FFFFFF" stroke="#E4E7EC" stroke-width="2"/><text x="518" y="531" font-family="Verdana,sans-serif" font-size="12" fill="#475569">8</text><circle cx="552" cy="526" r="10" fill="#0B1033" stroke="#0B1033" stroke-width="2"/><circle cx="596" cy="526" r="10" fill="#FFFFFF" stroke="#E4E7EC" stroke-width="2"/><circle cx="640" cy="526" r="10" fill="#FFFFFF" stroke="#E4E7EC" stroke-width="2"/><circle cx="684" cy="526" r="10" fill="#FFFFFF" stroke="#E4E7EC" stroke-width="2"/><circle cx="728" cy="526" r="10" fill="#FFFFFF" stroke="#E4E7EC" stroke-width="2"/><text x="518" y="573" font-family="Verdana,sans-serif" font-size="12" fill="#475569">9</text><circle cx="552" cy="568" r="10" fill="#FFFFFF" stroke="#E4E7EC" stroke-width="2"/><circle cx="596" cy="568" r="10" fill="#FFFFFF" stroke="#E4E7EC" stroke-width="2"/><circle cx="640" cy="568" r="10" fill="#0B1033" stroke="#0B1033" stroke-width="2"/><circle cx="684" cy="568" r="10" fill="#FFFFFF" stroke="#E4E7EC" stroke-width="2"/><circle cx="728" cy="568" r="10" fill="#FFFFFF" stroke="#E4E7EC" stroke-width="2"/><rect x="836" y="150" width="340" height="224" rx="14" fill="#FFFFFF" stroke="#E4E7EC"/><rect x="864" y="182" width="60" height="48" rx="6" fill="#FFC400" opacity=".25"/><path d="M864 198h60M894 182v48" stroke="#FFC400" stroke-width="3"/><text x="940" y="196" font-family="Verdana, sans-serif" font-size="14" font-weight="700" fill="#0B1033">Malote para impressão</text><text x="940" y="218" font-family="Verdana, sans-serif" font-size="12" font-weight="400" fill="#475569">Geração automática do lote</text><text x="864" y="270" font-family="Verdana, sans-serif" font-size="13" font-weight="400" fill="#475569">Logística de envio e retorno</text><rect x="864" y="286" width="284" height="12" rx="6" fill="#F6F8FB"/><rect x="864" y="286" width="200" height="12" rx="6" fill="#1BA559"/><text x="864" y="338" font-family="Verdana,sans-serif" font-size="12" fill="#475569">Envio</text><text x="1148" y="338" text-anchor="end" font-family="Verdana,sans-serif" font-size="12" fill="#475569">Retorno</text><rect x="836" y="392" width="340" height="238" rx="14" fill="#FFFFFF" stroke="#E4E7EC"/><rect x="864" y="424" width="120" height="150" rx="8" fill="#F6F8FB" stroke="#E4E7EC"/><rect x="878" y="444" width="92" height="8" rx="4" fill="#E4E7EC"/><rect x="878" y="474" width="92" height="8" rx="4" fill="#E4E7EC"/><rect x="878" y="504" width="92" height="8" rx="4" fill="#E4E7EC"/><rect x="878" y="534" width="92" height="8" rx="4" fill="#E4E7EC"/><rect x="864" y="492" width="120" height="6" fill="#1E50E0" opacity=".6"/><text x="1002" y="452" font-family="Verdana, sans-serif" font-size="15" font-weight="700" fill="#0B1033">Leitor OMR</text><text x="1002" y="474" font-family="Verdana, sans-serif" font-size="12" font-weight="400" fill="#475569">Coleta automatizada</text><text x="1002" y="492" font-family="Verdana, sans-serif" font-size="12" font-weight="400" fill="#475569">dos gabaritos</text><circle cx="1014" cy="536" r="16" fill="#1BA559"/><path d="M1007 536l5 5 9-9" stroke="#FFFFFF" stroke-width="2.6" fill="none" stroke-linecap="round" stroke-linejoin="round"/><text x="1040" y="542" font-family="Verdana, sans-serif" font-size="12" font-weight="600" fill="#0B1033">Correção na hora</text></svg>