<svg xmlns="http://www.w3.org/2000/svg" viewBox="0 0 1200 750" role="img" aria-label="Banco de questões com filtros">
  <rect width="1200" height="750" fill="#F6F9F8"/>
  <!-- sidebar -->
  <rect x="0" y="0" width="220" height="750" fill="#0E6E4E"/>
  <rect x="28" y="32" width="34" height="34" rx="9" fill="#FFC400"/>
  <rect x="72" y="40" width="96" height="16" rx="6" fill="#FFFFFF" opacity=".9"/>
  <rect x="28" y="110" width="120" height="14" rx="7" fill="#FFFFFF" opacity=".4"/><rect x="28" y="158" width="150" height="14" rx="7" fill="#FFFFFF" opacity=".95"/><rect x="28" y="206" width="120" height="14" rx="7" fill="#FFFFFF" opacity=".4"/><rect x="28" y="254" width="120" height="14" rx="7" fill="#FFFFFF" opacity=".4"/><rect x="28" y="302" width="120" height="14" rx="7" fill="#FFFFFF" opacity=".4"/>
  <!-- topbar -->
  <rect x="220" y="0" width="980" height="72" fill="#FFFFFF"/>
  <line x1="220" y1="72" x2="1200" y2="72" stroke="#E3E8E6"/>
  <rect x="252" y="28" width="240" height="18" rx="9" fill="#0F1B17" opacity=".85"/>
  <rect x="1050" y="22" width="110" height="30" rx="15" fill="#FFC400"/>
  <rect x="252" y="104" width="280" height="540" rx="16" fill="#FFFFFF" stroke="#E3E8E6"/><rect x="280" y="140" width="160" height="18" rx="9" fill="#0F1B17" stroke="none"/><rect x="280" y="196" width="224" height="38" rx="9" fill="#F6F9F8" stroke="#E3E8E6"/><rect x="280" y="252" width="224" height="38" rx="9" fill="#F6F9F8" stroke="#E3E8E6"/><rect x="280" y="308" width="224" height="38" rx="9" fill="#F6F9F8" stroke="#E3E8E6"/><rect x="280" y="364" width="224" height="38" rx="9" fill="#F6F9F8" stroke="#E3E8E6"/><rect x="280" y="420" width="224" height="38" rx="9" fill="#F6F9F8" stroke="#E3E8E6"/><rect x="556" y="104" width="612" height="540" rx="16" fill="#FFFFFF" stroke="#E3E8E6"/><rect x="584" y="140" width="556" height="64" rx="12" fill="#F6F9F8" stroke="#E3E8E6"/>
      <rect x="608" y="158" width="380" height="14" rx="7" fill="#4A5B54" opacity=".5"/>
      <rect x="608" y="180" width="120" height="10" rx="5" fill="#4A5B54" opacity=".3"/>
      <rect x="1040" y="156" width="76" height="30" rx="15" fill="#1456C4" opacity=".15"/><rect x="584" y="224" width="556" height="64" rx="12" fill="#F6F9F8" stroke="#E3E8E6"/>
      <rect x="608" y="242" width="380" height="14" rx="7" fill="#4A5B54" opacity=".5"/>
      <rect x="608" y="264" width="157" height="10" rx="5" fill="#4A5B54" opacity=".3"/>
      <rect x="1040" y="240" width="76" height="30" rx="15" fill="#1456C4" opacity=".15"/><rect x="584" y="308" width="556" height="64" rx="12" fill="#F6F9F8" stroke="#E3E8E6"/>
      <rect x="608" y="326" width="380" height="14" rx="7" fill="#4A5B54" opacity=".5"/>
      <rect x="608" y="348" width="194" height="10" rx="5" fill="#4A5B54" opacity=".3"/>
      <rect x="1040" y="324" width="76" height="30" rx="15" fill="#1456C4" opacity=".15"/><rect x="584" y="392" width="556" height="64" rx="12" fill="#F6F9F8" stroke="#E3E8E6"/>
      <rect x="608" y="410" width="380" height="14" rx="7" fill="#4A5B54" opacity=".5"/>
      <rect x="608" y="432" width="231" height="10" rx="5" fill="#4A5B54" opacity=".3"/>
      <rect x="1040" y="408" width="76" height="30" rx="15" fill="#1456C4" opacity=".15"/><rect x="584" y="476" width="556" height="64" rx="12" fill="#F6F9F8" stroke="#E3E8E6"/>
      <rect x="608" y="494" width="380" height="14" rx="7" fill="#4A5B54" opacity=".5"/>
      <rect x="608" y="516" width="268" height="10" rx="5" fill="#4A5B54" opacity=".3"/>
      <rect x="1040" y="492" width="76" height="30" rx="15" fill="#1456C4" opacity=".15"/><rect x="584" y="560" width="556" height="64" rx="12" fill="#F6F9F8" stroke="#E3E8E6"/>
      <rect x="608" y="578" width="380" height="14" rx="7" fill="#4A5B54" opacity=".5"/>
      <rect x="608" y="600" width="305" height="10" rx="5" fill="#4A5B54" opacity=".3"/>
      <rect x="1040" y="576" width="76" height="30" rx="15" fill="#1456C4" opacity=".15"/>
</svg>