<svg xmlns="http://www.w3.org/2000/svg" viewBox="0 0 1200 750" role="img" aria-label="Cursos EAD">
  <rect width="1200" height="750" fill="#F6F8FB"/>
  <!-- sidebar -->
  <rect x="0" y="0" width="200" height="750" fill="#0B1033"/>
  <rect x="24" y="28" width="30" height="30" rx="8" fill="#FFC400"/>
  <rect x="62" y="36" width="92" height="14" rx="7" fill="#FFFFFF" opacity=".92"/>
  <rect x="24" y="104" width="152" height="14" rx="7" fill="#FFFFFF" opacity=".4"/>
  <rect x="24" y="140" width="120" height="14" rx="7" fill="#FFFFFF" opacity=".4"/>
  <rect x="14" y="178" width="172" height="40" rx="10" fill="#FFFFFF" opacity=".12"/>
  <rect x="28" y="190" width="120" height="14" rx="7" fill="#FFFFFF" opacity=".95"/>
  <rect x="24" y="240" width="140" height="14" rx="7" fill="#FFFFFF" opacity=".4"/>
  <rect x="24" y="276" width="110" height="14" rx="7" fill="#FFFFFF" opacity=".4"/>

  <!-- video player -->
  <rect x="240" y="40" width="610" height="330" rx="14" fill="#0B1033"/>
  <rect x="240" y="40" width="610" height="330" rx="14" fill="url(#g)" opacity=".25"/>
  <defs><linearGradient id="g" x1="0" y1="0" x2="1" y2="1">
    <stop offset="0" stop-color="#1BA559"/><stop offset="1" stop-color="#1E50E0"/>
  </linearGradient></defs>
  <circle cx="545" cy="195" r="44" fill="#FFC400"/>
  <path d="M532 172 l30 23 -30 23 z" fill="#0B1033"/>
  <!-- progress bar do video -->
  <rect x="270" y="330" width="550" height="8" rx="4" fill="#FFFFFF" opacity=".25"/>
  <rect x="270" y="330" width="340" height="8" rx="4" fill="#FFC400"/>

  <!-- modulos (direita) -->
  <rect x="880" y="40" width="280" height="330" rx="12" fill="#FFFFFF" stroke="#E6E8F0" stroke-width="2"/>
  <rect x="900" y="62" width="150" height="16" rx="8" fill="#0B1033"/>
  <g>
    <circle cx="912" cy="120" r="11" fill="#1BA559"/><path d="M907 120 l4 4 7 -8" stroke="#fff" stroke-width="2.5" fill="none" stroke-linecap="round" stroke-linejoin="round"/>
    <rect x="934" y="113" width="200" height="14" rx="7" fill="#E6E8F0"/>
    <circle cx="912" cy="162" r="11" fill="#1BA559"/><path d="M907 162 l4 4 7 -8" stroke="#fff" stroke-width="2.5" fill="none" stroke-linecap="round" stroke-linejoin="round"/>
    <rect x="934" y="155" width="180" height="14" rx="7" fill="#E6E8F0"/>
    <circle cx="912" cy="204" r="11" fill="none" stroke="#1E50E0" stroke-width="2.5"/>
    <rect x="934" y="197" width="200" height="14" rx="7" fill="#E6E8F0"/>
    <circle cx="912" cy="246" r="11" fill="none" stroke="#C7CCDD" stroke-width="2.5"/>
    <rect x="934" y="239" width="160" height="14" rx="7" fill="#EEF0F6"/>
    <circle cx="912" cy="288" r="11" fill="none" stroke="#C7CCDD" stroke-width="2.5"/>
    <rect x="934" y="281" width="190" height="14" rx="7" fill="#EEF0F6"/>
  </g>
  <!-- chips de tipos de conteudo -->
  <rect x="900" y="320" width="64" height="26" rx="13" fill="#E4F6EC"/><rect x="912" y="330" width="40" height="7" rx="3.5" fill="#0A6E36"/>
  <rect x="972" y="320" width="64" height="26" rx="13" fill="#EAF0FF"/><rect x="984" y="330" width="40" height="7" rx="3.5" fill="#1E50E0"/>
  <rect x="1044" y="320" width="64" height="26" rx="13" fill="#FFF5D6"/><rect x="1056" y="330" width="40" height="7" rx="3.5" fill="#8A6A00"/>

  <!-- titulo + progresso do curso (abaixo) -->
  <rect x="240" y="408" width="360" height="20" rx="10" fill="#0B1033"/>
  <rect x="240" y="442" width="260" height="14" rx="7" fill="#C7CCDD"/>

  <rect x="240" y="492" width="610" height="40" rx="10" fill="#FFFFFF" stroke="#E6E8F0" stroke-width="2"/>
  <rect x="256" y="506" width="120" height="12" rx="6" fill="#4A5170"/>
  <rect x="540" y="505" width="294" height="14" rx="7" fill="#EEF0F6"/>
  <rect x="540" y="505" width="190" height="14" rx="7" fill="#1BA559"/>

  <!-- certificado -->
  <rect x="240" y="556" width="610" height="64" rx="12" fill="#0B1033"/>
  <circle cx="286" cy="588" r="20" fill="#FFC400"/>
  <path d="M286 578 l3 7 7 .5 -5.5 4.5 2 7 -6.5 -4 -6.5 4 2 -7 -5.5 -4.5 7 -.5 z" fill="#0B1033"/>
  <rect x="324" y="572" width="220" height="14" rx="7" fill="#FFFFFF" opacity=".95"/>
  <rect x="324" y="596" width="300" height="12" rx="6" fill="#FFFFFF" opacity=".5"/>

  <!-- modulos cards (rodape direita) -->
  <rect x="880" y="408" width="280" height="212" rx="12" fill="#FFFFFF" stroke="#E6E8F0" stroke-width="2"/>
  <rect x="900" y="430" width="120" height="14" rx="7" fill="#0B1033"/>
  <rect x="900" y="462" width="240" height="40" rx="8" fill="#F6F8FB"/>
  <rect x="900" y="512" width="240" height="40" rx="8" fill="#F6F8FB"/>
  <rect x="900" y="562" width="240" height="40" rx="8" fill="#F6F8FB"/>
</svg>
