<svg xmlns="http://www.w3.org/2000/svg" viewBox="0 0 1200 750" role="img" aria-label="Edu.IA · Assistente">
  <rect width="1200" height="750" fill="#F6F8FB"/>
  <!-- sidebar -->
  <rect x="0" y="0" width="200" height="750" fill="#0B1033"/>
  <rect x="24" y="28" width="30" height="30" rx="8" fill="#FFC400"/>
  <rect x="62" y="36" width="86" height="14" rx="7" fill="#FFFFFF" opacity=".92"/>
  
      <rect x="28" y="104" width="16" height="16" rx="4" fill="#FFFFFF" opacity=".45"/>
      <rect x="54" y="106" width="84" height="12" rx="6" fill="#FFFFFF" opacity=".4"/><rect x="14" y="142" width="172" height="40" rx="10" fill="#FFFFFF" opacity=".12"/>
      <rect x="28" y="154" width="16" height="16" rx="4" fill="#FFFFFF" opacity=".95"/>
      <rect x="54" y="156" width="104" height="12" rx="6" fill="#FFFFFF" opacity=".95"/>
      <rect x="28" y="204" width="16" height="16" rx="4" fill="#FFFFFF" opacity=".45"/>
      <rect x="54" y="206" width="84" height="12" rx="6" fill="#FFFFFF" opacity=".4"/>
      <rect x="28" y="254" width="16" height="16" rx="4" fill="#FFFFFF" opacity=".45"/>
      <rect x="54" y="256" width="84" height="12" rx="6" fill="#FFFFFF" opacity=".4"/>
      <rect x="28" y="304" width="16" height="16" rx="4" fill="#FFFFFF" opacity=".45"/>
      <rect x="54" y="306" width="84" height="12" rx="6" fill="#FFFFFF" opacity=".4"/>
  <rect x="24" y="690" width="152" height="36" rx="10" fill="#FFFFFF" opacity=".10"/>
  <!-- topbar -->
  <rect x="200" y="0" width="1000" height="72" fill="#FFFFFF"/>
  <line x1="200" y1="72" x2="1200" y2="72" stroke="#E4E7EC"/>
  <text x="232" y="44" font-family="Verdana, sans-serif" font-size="20" font-weight="700" fill="#0B1033">Edu.IA · Assistente</text>
  <rect x="970" y="24" width="120" height="26" rx="13" fill="#1E50E0" opacity=".12"/>
  <circle cx="1130" cy="36" r="16" fill="#1E50E0"/>
  <rect x="224" y="116" width="952" height="64" rx="14" fill="#FFFFFF" stroke="#E4E7EC"/><circle cx="258" cy="148" r="12" fill="#1E50E0"/><text x="286" y="153" font-family="Verdana, sans-serif" font-size="15" font-weight="400" fill="#475569">Peça ao Edu.IA: “Crie um plano de aula sobre funções para o 9º ano”</text><rect x="1020" y="128" width="132" height="40" rx="20" fill="#FFC400"/><text x="1052" y="153" font-family="Verdana, sans-serif" font-size="14" font-weight="700" fill="#0B1033">✨ Gerar</text><text x="232" y="214" font-family="Verdana, sans-serif" font-size="14" font-weight="700" fill="#475569">Ferramentas</text><rect x="224" y="232" width="300" height="98" rx="14" fill="#FFFFFF" stroke="#E4E7EC"/><rect x="244" y="254" width="40" height="40" rx="10" fill="#1BA559" opacity=".16"/><rect x="255" y="265" width="18" height="18" rx="5" fill="#1BA559"/><text x="300" y="274" font-family="Verdana, sans-serif" font-size="15" font-weight="700" fill="#0B1033">Plano de aula</text><rect x="300" y="288" width="150" height="10" rx="5" fill="#E4E7EC"/><rect x="550" y="232" width="300" height="98" rx="14" fill="#FFFFFF" stroke="#E4E7EC"/><rect x="570" y="254" width="40" height="40" rx="10" fill="#1E50E0" opacity=".16"/><rect x="581" y="265" width="18" height="18" rx="5" fill="#1E50E0"/><text x="626" y="274" font-family="Verdana, sans-serif" font-size="15" font-weight="700" fill="#0B1033">Atividades</text><rect x="626" y="288" width="150" height="10" rx="5" fill="#E4E7EC"/><rect x="876" y="232" width="300" height="98" rx="14" fill="#FFFFFF" stroke="#E4E7EC"/><rect x="896" y="254" width="40" height="40" rx="10" fill="#FFC400" opacity=".16"/><rect x="907" y="265" width="18" height="18" rx="5" fill="#FFC400"/><text x="952" y="274" font-family="Verdana, sans-serif" font-size="15" font-weight="700" fill="#0B1033">Questões</text><rect x="952" y="288" width="150" height="10" rx="5" fill="#E4E7EC"/><rect x="224" y="350" width="300" height="98" rx="14" fill="#FFFFFF" stroke="#E4E7EC"/><rect x="244" y="372" width="40" height="40" rx="10" fill="#1BA559" opacity=".16"/><rect x="255" y="383" width="18" height="18" rx="5" fill="#1BA559"/><text x="300" y="392" font-family="Verdana, sans-serif" font-size="15" font-weight="700" fill="#0B1033">Resumos</text><rect x="300" y="406" width="150" height="10" rx="5" fill="#E4E7EC"/><rect x="550" y="350" width="300" height="98" rx="14" fill="#FFFFFF" stroke="#E4E7EC"/><rect x="570" y="372" width="40" height="40" rx="10" fill="#1E50E0" opacity=".16"/><rect x="581" y="383" width="18" height="18" rx="5" fill="#1E50E0"/><text x="626" y="392" font-family="Verdana, sans-serif" font-size="15" font-weight="700" fill="#0B1033">Adaptar nível</text><rect x="626" y="406" width="150" height="10" rx="5" fill="#E4E7EC"/><rect x="876" y="350" width="300" height="98" rx="14" fill="#FFFFFF" stroke="#E4E7EC"/><rect x="896" y="372" width="40" height="40" rx="10" fill="#FFC400" opacity=".16"/><rect x="907" y="383" width="18" height="18" rx="5" fill="#FFC400"/><text x="952" y="392" font-family="Verdana, sans-serif" font-size="15" font-weight="700" fill="#0B1033">Feedback</text><rect x="952" y="406" width="150" height="10" rx="5" fill="#E4E7EC"/><rect x="224" y="480" width="952" height="116" rx="14" fill="#FFFFFF" stroke="#E4E7EC"/><rect x="248" y="504" width="150" height="24" rx="12" fill="#1BA559" opacity=".14"/><text x="266" y="521" font-family="Verdana, sans-serif" font-size="12" font-weight="700" fill="#1BA559">✨ Edu.IA gerou</text><text x="412" y="521" font-family="Verdana, sans-serif" font-size="14" font-weight="700" fill="#0B1033">Plano de aula · 9º ano — Funções</text><rect x="248" y="544" width="820" height="10" rx="5" fill="#E4E7EC"/><rect x="248" y="562" width="900" height="10" rx="5" fill="#E4E7EC"/><rect x="248" y="580" width="760" height="10" rx="5" fill="#E4E7EC"/>
</svg>