<svg xmlns="http://www.w3.org/2000/svg" viewBox="0 0 1200 750" role="img" aria-label="Leitor OMR: identificação automática do aluno e extração de respostas">
  <rect width="1200" height="750" fill="#F6F8FB"/>
  <!-- pilha (lote da turma) -->
  <rect x="128" y="168" width="430" height="510" rx="14" fill="#FFFFFF" stroke="#E4E7EC"/>
  <rect x="118" y="159" width="436" height="514" rx="14" fill="#FFFFFF" stroke="#E4E7EC"/>
  <!-- folha principal -->
  <rect x="108" y="150" width="440" height="520" rx="14" fill="#FFFFFF" stroke="#E4E7EC"/>
  <rect x="108" y="150" width="440" height="56" rx="14" fill="#1E50E0" opacity=".12"/>
  <text x="138" y="186" font-family="Verdana,sans-serif" font-size="16" font-weight="700" fill="#0B1033">Folha de respostas · OMR</text>
  <text x="150" y="257" font-family="Verdana,sans-serif" font-size="13" fill="#475569">1</text><circle cx="192" cy="252" r="11" fill="#FFFFFF" stroke="#E4E7EC" stroke-width="2"/><circle cx="238" cy="252" r="11" fill="#0B1033" stroke="#0B1033" stroke-width="2"/><circle cx="284" cy="252" r="11" fill="#FFFFFF" stroke="#E4E7EC" stroke-width="2"/><circle cx="330" cy="252" r="11" fill="#FFFFFF" stroke="#E4E7EC" stroke-width="2"/><circle cx="376" cy="252" r="11" fill="#FFFFFF" stroke="#E4E7EC" stroke-width="2"/><text x="150" y="297" font-family="Verdana,sans-serif" font-size="13" fill="#475569">2</text><circle cx="192" cy="292" r="11" fill="#FFFFFF" stroke="#E4E7EC" stroke-width="2"/><circle cx="238" cy="292" r="11" fill="#FFFFFF" stroke="#E4E7EC" stroke-width="2"/><circle cx="284" cy="292" r="11" fill="#FFFFFF" stroke="#E4E7EC" stroke-width="2"/><circle cx="330" cy="292" r="11" fill="#0B1033" stroke="#0B1033" stroke-width="2"/><circle cx="376" cy="292" r="11" fill="#FFFFFF" stroke="#E4E7EC" stroke-width="2"/><text x="150" y="337" font-family="Verdana,sans-serif" font-size="13" fill="#475569">3</text><circle cx="192" cy="332" r="11" fill="#0B1033" stroke="#0B1033" stroke-width="2"/><circle cx="238" cy="332" r="11" fill="#FFFFFF" stroke="#E4E7EC" stroke-width="2"/><circle cx="284" cy="332" r="11" fill="#FFFFFF" stroke="#E4E7EC" stroke-width="2"/><circle cx="330" cy="332" r="11" fill="#FFFFFF" stroke="#E4E7EC" stroke-width="2"/><circle cx="376" cy="332" r="11" fill="#FFFFFF" stroke="#E4E7EC" stroke-width="2"/><text x="150" y="377" font-family="Verdana,sans-serif" font-size="13" fill="#475569">4</text><circle cx="192" cy="372" r="11" fill="#FFFFFF" stroke="#E4E7EC" stroke-width="2"/><circle cx="238" cy="372" r="11" fill="#FFFFFF" stroke="#E4E7EC" stroke-width="2"/><circle cx="284" cy="372" r="11" fill="#0B1033" stroke="#0B1033" stroke-width="2"/><circle cx="330" cy="372" r="11" fill="#FFFFFF" stroke="#E4E7EC" stroke-width="2"/><circle cx="376" cy="372" r="11" fill="#FFFFFF" stroke="#E4E7EC" stroke-width="2"/><text x="150" y="417" font-family="Verdana,sans-serif" font-size="13" fill="#475569">5</text><circle cx="192" cy="412" r="11" fill="#FFFFFF" stroke="#E4E7EC" stroke-width="2"/><circle cx="238" cy="412" r="11" fill="#FFFFFF" stroke="#E4E7EC" stroke-width="2"/><circle cx="284" cy="412" r="11" fill="#FFFFFF" stroke="#E4E7EC" stroke-width="2"/><circle cx="330" cy="412" r="11" fill="#FFFFFF" stroke="#E4E7EC" stroke-width="2"/><circle cx="376" cy="412" r="11" fill="#0B1033" stroke="#0B1033" stroke-width="2"/><text x="150" y="457" font-family="Verdana,sans-serif" font-size="13" fill="#475569">6</text><circle cx="192" cy="452" r="11" fill="#FFFFFF" stroke="#E4E7EC" stroke-width="2"/><circle cx="238" cy="452" r="11" fill="#0B1033" stroke="#0B1033" stroke-width="2"/><circle cx="284" cy="452" r="11" fill="#FFFFFF" stroke="#E4E7EC" stroke-width="2"/><circle cx="330" cy="452" r="11" fill="#FFFFFF" stroke="#E4E7EC" stroke-width="2"/><circle cx="376" cy="452" r="11" fill="#FFFFFF" stroke="#E4E7EC" stroke-width="2"/><text x="150" y="497" font-family="Verdana,sans-serif" font-size="13" fill="#475569">7</text><circle cx="192" cy="492" r="11" fill="#FFFFFF" stroke="#E4E7EC" stroke-width="2"/><circle cx="238" cy="492" r="11" fill="#FFFFFF" stroke="#E4E7EC" stroke-width="2"/><circle cx="284" cy="492" r="11" fill="#FFFFFF" stroke="#E4E7EC" stroke-width="2"/><circle cx="330" cy="492" r="11" fill="#0B1033" stroke="#0B1033" stroke-width="2"/><circle cx="376" cy="492" r="11" fill="#FFFFFF" stroke="#E4E7EC" stroke-width="2"/><text x="150" y="537" font-family="Verdana,sans-serif" font-size="13" fill="#475569">8</text><circle cx="192" cy="532" r="11" fill="#0B1033" stroke="#0B1033" stroke-width="2"/><circle cx="238" cy="532" r="11" fill="#FFFFFF" stroke="#E4E7EC" stroke-width="2"/><circle cx="284" cy="532" r="11" fill="#FFFFFF" stroke="#E4E7EC" stroke-width="2"/><circle cx="330" cy="532" r="11" fill="#FFFFFF" stroke="#E4E7EC" stroke-width="2"/><circle cx="376" cy="532" r="11" fill="#FFFFFF" stroke="#E4E7EC" stroke-width="2"/><text x="150" y="577" font-family="Verdana,sans-serif" font-size="13" fill="#475569">9</text><circle cx="192" cy="572" r="11" fill="#FFFFFF" stroke="#E4E7EC" stroke-width="2"/><circle cx="238" cy="572" r="11" fill="#FFFFFF" stroke="#E4E7EC" stroke-width="2"/><circle cx="284" cy="572" r="11" fill="#0B1033" stroke="#0B1033" stroke-width="2"/><circle cx="330" cy="572" r="11" fill="#FFFFFF" stroke="#E4E7EC" stroke-width="2"/><circle cx="376" cy="572" r="11" fill="#FFFFFF" stroke="#E4E7EC" stroke-width="2"/>
  <!-- celular lendo (app com câmera) -->
  <g transform="translate(372 470)">
    <rect x="0" y="0" width="150" height="220" rx="20" fill="#0B1033"/>
    <rect x="10" y="14" width="130" height="192" rx="10" fill="#FFFFFF"/>
    <g stroke="#FFC400" stroke-width="4" fill="none" stroke-linecap="round">
      <path d="M26 40 v-12 h12"/><path d="M124 40 v-12 h-12"/><path d="M26 176 v12 h12"/><path d="M124 176 v12 h-12"/>
    </g>
    <circle cx="40" cy="64" r="7" fill="#0B1033" stroke="#E4E7EC" stroke-width="1.5"/><circle cx="64" cy="64" r="7" fill="#FFFFFF" stroke="#E4E7EC" stroke-width="1.5"/><circle cx="88" cy="64" r="7" fill="#FFFFFF" stroke="#E4E7EC" stroke-width="1.5"/><circle cx="112" cy="64" r="7" fill="#0B1033" stroke="#E4E7EC" stroke-width="1.5"/><circle cx="40" cy="92" r="7" fill="#FFFFFF" stroke="#E4E7EC" stroke-width="1.5"/><circle cx="64" cy="92" r="7" fill="#FFFFFF" stroke="#E4E7EC" stroke-width="1.5"/><circle cx="88" cy="92" r="7" fill="#0B1033" stroke="#E4E7EC" stroke-width="1.5"/><circle cx="112" cy="92" r="7" fill="#FFFFFF" stroke="#E4E7EC" stroke-width="1.5"/><circle cx="40" cy="120" r="7" fill="#FFFFFF" stroke="#E4E7EC" stroke-width="1.5"/><circle cx="64" cy="120" r="7" fill="#0B1033" stroke="#E4E7EC" stroke-width="1.5"/><circle cx="88" cy="120" r="7" fill="#FFFFFF" stroke="#E4E7EC" stroke-width="1.5"/><circle cx="112" cy="120" r="7" fill="#FFFFFF" stroke="#E4E7EC" stroke-width="1.5"/><circle cx="40" cy="148" r="7" fill="#0B1033" stroke="#E4E7EC" stroke-width="1.5"/><circle cx="64" cy="148" r="7" fill="#FFFFFF" stroke="#E4E7EC" stroke-width="1.5"/><circle cx="88" cy="148" r="7" fill="#FFFFFF" stroke="#E4E7EC" stroke-width="1.5"/><circle cx="112" cy="148" r="7" fill="#0B1033" stroke="#E4E7EC" stroke-width="1.5"/>
  </g>
  <!-- badge OMR + IA -->
  <rect x="566" y="384" width="126" height="50" rx="25" fill="#0B1033"/>
  <text x="629" y="415" text-anchor="middle" font-family="Verdana,sans-serif" font-size="15" font-weight="800" fill="#FFFFFF">OMR + IA</text>
  <path d="M576 470 h100 m-16 -10 l16 10 -16 10" stroke="#1E50E0" stroke-width="4" fill="none" stroke-linecap="round" stroke-linejoin="round"/>
  <!-- card resultado -->
  <rect x="690" y="150" width="430" height="520" rx="16" fill="#FFFFFF" stroke="#E4E7EC"/>
  <text x="720" y="194" font-family="Verdana,sans-serif" font-size="16" font-weight="700" fill="#0B1033">Identificação automática</text>
  <circle cx="742" cy="246" r="24" fill="#1BA559"/>
  <text x="742" y="252" text-anchor="middle" font-family="Verdana,sans-serif" font-size="16" font-weight="800" fill="#FFFFFF">AS</text>
  <text x="780" y="240" font-family="Verdana,sans-serif" font-size="16" font-weight="700" fill="#0B1033">Ana Souza</text>
  <text x="780" y="262" font-family="Verdana,sans-serif" font-size="13" fill="#475569">3º A · Matrícula 2024-0157</text>
  <line x1="720" y1="298" x2="1090" y2="298" stroke="#E4E7EC"/>
  <text x="720" y="338" font-family="Verdana,sans-serif" font-size="13" fill="#475569">Respostas extraídas</text>
  <text x="720" y="384" font-family="Verdana,sans-serif" font-size="40" font-weight="800" fill="#1BA559">90/90</text>
  <text x="980" y="338" font-family="Verdana,sans-serif" font-size="13" fill="#475569">Nota</text>
  <text x="980" y="384" font-family="Verdana,sans-serif" font-size="40" font-weight="800" fill="#0B1033">8,4</text>
  <text x="720" y="436" font-family="Verdana,sans-serif" font-size="13" fill="#475569">Correção por questão</text>
  <circle cx="730" cy="470" r="13" fill="#E6F6EC"/><path d="M725 470 l3 3 7 -7" stroke="#1BA559" stroke-width="2.4" fill="none" stroke-linecap="round" stroke-linejoin="round"/><circle cx="794" cy="470" r="13" fill="#E6F6EC"/><path d="M789 470 l3 3 7 -7" stroke="#1BA559" stroke-width="2.4" fill="none" stroke-linecap="round" stroke-linejoin="round"/><circle cx="858" cy="470" r="13" fill="#E6F6EC"/><path d="M853 470 l3 3 7 -7" stroke="#1BA559" stroke-width="2.4" fill="none" stroke-linecap="round" stroke-linejoin="round"/><circle cx="922" cy="470" r="13" fill="#E6F6EC"/><path d="M917 470 l3 3 7 -7" stroke="#1BA559" stroke-width="2.4" fill="none" stroke-linecap="round" stroke-linejoin="round"/><circle cx="986" cy="470" r="13" fill="#E6F6EC"/><path d="M981 470 l3 3 7 -7" stroke="#1BA559" stroke-width="2.4" fill="none" stroke-linecap="round" stroke-linejoin="round"/><circle cx="1050" cy="470" r="13" fill="#E6F6EC"/><path d="M1045 470 l3 3 7 -7" stroke="#1BA559" stroke-width="2.4" fill="none" stroke-linecap="round" stroke-linejoin="round"/><circle cx="730" cy="508" r="13" fill="#E6F6EC"/><path d="M725 508 l3 3 7 -7" stroke="#1BA559" stroke-width="2.4" fill="none" stroke-linecap="round" stroke-linejoin="round"/><circle cx="794" cy="508" r="13" fill="#FDECEC"/><path d="M789 503 l10 10 m0 -10 l-10 10" stroke="#D14343" stroke-width="2.4" stroke-linecap="round"/><circle cx="858" cy="508" r="13" fill="#E6F6EC"/><path d="M853 508 l3 3 7 -7" stroke="#1BA559" stroke-width="2.4" fill="none" stroke-linecap="round" stroke-linejoin="round"/><circle cx="922" cy="508" r="13" fill="#E6F6EC"/><path d="M917 508 l3 3 7 -7" stroke="#1BA559" stroke-width="2.4" fill="none" stroke-linecap="round" stroke-linejoin="round"/><circle cx="986" cy="508" r="13" fill="#E6F6EC"/><path d="M981 508 l3 3 7 -7" stroke="#1BA559" stroke-width="2.4" fill="none" stroke-linecap="round" stroke-linejoin="round"/><circle cx="1050" cy="508" r="13" fill="#E6F6EC"/><path d="M1045 508 l3 3 7 -7" stroke="#1BA559" stroke-width="2.4" fill="none" stroke-linecap="round" stroke-linejoin="round"/><circle cx="730" cy="546" r="13" fill="#E6F6EC"/><path d="M725 546 l3 3 7 -7" stroke="#1BA559" stroke-width="2.4" fill="none" stroke-linecap="round" stroke-linejoin="round"/><circle cx="794" cy="546" r="13" fill="#E6F6EC"/><path d="M789 546 l3 3 7 -7" stroke="#1BA559" stroke-width="2.4" fill="none" stroke-linecap="round" stroke-linejoin="round"/><circle cx="858" cy="546" r="13" fill="#FDECEC"/><path d="M853 541 l10 10 m0 -10 l-10 10" stroke="#D14343" stroke-width="2.4" stroke-linecap="round"/><circle cx="922" cy="546" r="13" fill="#E6F6EC"/><path d="M917 546 l3 3 7 -7" stroke="#1BA559" stroke-width="2.4" fill="none" stroke-linecap="round" stroke-linejoin="round"/><circle cx="986" cy="546" r="13" fill="#E6F6EC"/><path d="M981 546 l3 3 7 -7" stroke="#1BA559" stroke-width="2.4" fill="none" stroke-linecap="round" stroke-linejoin="round"/><circle cx="1050" cy="546" r="13" fill="#E6F6EC"/><path d="M1045 546 l3 3 7 -7" stroke="#1BA559" stroke-width="2.4" fill="none" stroke-linecap="round" stroke-linejoin="round"/><circle cx="730" cy="584" r="13" fill="#E6F6EC"/><path d="M725 584 l3 3 7 -7" stroke="#1BA559" stroke-width="2.4" fill="none" stroke-linecap="round" stroke-linejoin="round"/><circle cx="794" cy="584" r="13" fill="#E6F6EC"/><path d="M789 584 l3 3 7 -7" stroke="#1BA559" stroke-width="2.4" fill="none" stroke-linecap="round" stroke-linejoin="round"/><circle cx="858" cy="584" r="13" fill="#E6F6EC"/><path d="M853 584 l3 3 7 -7" stroke="#1BA559" stroke-width="2.4" fill="none" stroke-linecap="round" stroke-linejoin="round"/><circle cx="922" cy="584" r="13" fill="#E6F6EC"/><path d="M917 584 l3 3 7 -7" stroke="#1BA559" stroke-width="2.4" fill="none" stroke-linecap="round" stroke-linejoin="round"/><circle cx="986" cy="584" r="13" fill="#FDECEC"/><path d="M981 579 l10 10 m0 -10 l-10 10" stroke="#D14343" stroke-width="2.4" stroke-linecap="round"/><circle cx="1050" cy="584" r="13" fill="#E6F6EC"/><path d="M1045 584 l3 3 7 -7" stroke="#1BA559" stroke-width="2.4" fill="none" stroke-linecap="round" stroke-linejoin="round"/><circle cx="730" cy="622" r="13" fill="#E6F6EC"/><path d="M725 622 l3 3 7 -7" stroke="#1BA559" stroke-width="2.4" fill="none" stroke-linecap="round" stroke-linejoin="round"/><circle cx="794" cy="622" r="13" fill="#E6F6EC"/><path d="M789 622 l3 3 7 -7" stroke="#1BA559" stroke-width="2.4" fill="none" stroke-linecap="round" stroke-linejoin="round"/><circle cx="858" cy="622" r="13" fill="#E6F6EC"/><path d="M853 622 l3 3 7 -7" stroke="#1BA559" stroke-width="2.4" fill="none" stroke-linecap="round" stroke-linejoin="round"/><circle cx="922" cy="622" r="13" fill="#E6F6EC"/><path d="M917 622 l3 3 7 -7" stroke="#1BA559" stroke-width="2.4" fill="none" stroke-linecap="round" stroke-linejoin="round"/><circle cx="986" cy="622" r="13" fill="#E6F6EC"/><path d="M981 622 l3 3 7 -7" stroke="#1BA559" stroke-width="2.4" fill="none" stroke-linecap="round" stroke-linejoin="round"/><circle cx="1050" cy="622" r="13" fill="#E6F6EC"/><path d="M1045 622 l3 3 7 -7" stroke="#1BA559" stroke-width="2.4" fill="none" stroke-linecap="round" stroke-linejoin="round"/>
</svg>