<svg xmlns="http://www.w3.org/2000/svg" viewBox="0 0 1200 750" role="img" aria-label="Início">
  <rect width="1200" height="750" fill="#F6F8FB"/>
  <!-- sidebar -->
  <rect x="0" y="0" width="200" height="750" fill="#0B1033"/>
  <rect x="24" y="28" width="30" height="30" rx="8" fill="#FFC400"/>
  <rect x="62" y="36" width="86" height="14" rx="7" fill="#FFFFFF" opacity=".92"/>
  <rect x="14" y="92" width="172" height="40" rx="10" fill="#FFFFFF" opacity=".12"/>
      <rect x="28" y="104" width="16" height="16" rx="4" fill="#FFFFFF" opacity=".95"/>
      <rect x="54" y="106" width="104" height="12" rx="6" fill="#FFFFFF" opacity=".95"/>
      <rect x="28" y="154" width="16" height="16" rx="4" fill="#FFFFFF" opacity=".45"/>
      <rect x="54" y="156" width="84" height="12" rx="6" fill="#FFFFFF" opacity=".4"/>
      <rect x="28" y="204" width="16" height="16" rx="4" fill="#FFFFFF" opacity=".45"/>
      <rect x="54" y="206" width="84" height="12" rx="6" fill="#FFFFFF" opacity=".4"/>
      <rect x="28" y="254" width="16" height="16" rx="4" fill="#FFFFFF" opacity=".45"/>
      <rect x="54" y="256" width="84" height="12" rx="6" fill="#FFFFFF" opacity=".4"/>
      <rect x="28" y="304" width="16" height="16" rx="4" fill="#FFFFFF" opacity=".45"/>
      <rect x="54" y="306" width="84" height="12" rx="6" fill="#FFFFFF" opacity=".4"/>
  <rect x="24" y="690" width="152" height="36" rx="10" fill="#FFFFFF" opacity=".10"/>
  <!-- topbar -->
  <rect x="200" y="0" width="1000" height="72" fill="#FFFFFF"/>
  <line x1="200" y1="72" x2="1200" y2="72" stroke="#E4E7EC"/>
  <text x="232" y="44" font-family="Verdana, sans-serif" font-size="20" font-weight="700" fill="#0B1033">Início</text>
  <rect x="970" y="24" width="120" height="26" rx="13" fill="#1BA559" opacity=".12"/>
  <circle cx="1130" cy="36" r="16" fill="#1BA559"/>
  <text x="232" y="116" font-family="Verdana, sans-serif" font-size="22" font-weight="800" fill="#0B1033">Olá, Colégio Aurora 👋</text><text x="232" y="140" font-family="Verdana, sans-serif" font-size="14" font-weight="400" fill="#475569">Resumo da sua escola hoje</text><rect x="224" y="160" width="952" height="92" rx="16" fill="#1BA559"/><text x="252" y="196" font-family="Verdana, sans-serif" font-size="18" font-weight="700" fill="#FFFFFF">Próximo: 2º Simulado ENEM</text><text x="252" y="224" font-family="Verdana,sans-serif" font-size="13" fill="#FFFFFF" opacity=".85">Quinta, 14h · 1.248 alunos inscritos</text><rect x="1004" y="184" width="148" height="44" rx="22" fill="#FFC400"/><text x="1034" y="212" font-family="Verdana, sans-serif" font-size="13" font-weight="700" fill="#0B1033">Ver agenda</text><rect x="224" y="272" width="292" height="108" rx="16" fill="#FFFFFF" stroke="#E4E7EC"/><text x="246" y="304" font-family="Verdana, sans-serif" font-size="13" font-weight="400" fill="#475569">Alunos ativos</text><text x="246" y="348" font-family="Verdana,sans-serif" font-size="30" font-weight="800" fill="#1E50E0">1.248</text><rect x="540" y="272" width="292" height="108" rx="16" fill="#FFFFFF" stroke="#E4E7EC"/><text x="562" y="304" font-family="Verdana, sans-serif" font-size="13" font-weight="400" fill="#475569">Simulados no mês</text><text x="562" y="348" font-family="Verdana,sans-serif" font-size="30" font-weight="800" fill="#1BA559">12</text><rect x="856" y="272" width="292" height="108" rx="16" fill="#FFFFFF" stroke="#E4E7EC"/><text x="878" y="304" font-family="Verdana, sans-serif" font-size="13" font-weight="400" fill="#475569">Nota média</text><text x="878" y="348" font-family="Verdana,sans-serif" font-size="30" font-weight="800" fill="#FFC400">712</text><rect x="224" y="400" width="952" height="170" rx="16" fill="#FFFFFF" stroke="#E4E7EC"/><text x="248" y="432" font-family="Verdana, sans-serif" font-size="14" font-weight="700" fill="#0B1033">Evolução da escola</text><polygon points="262,540 262,504 360,479.3060129500472 458,464.012545369326 556,462.2266079908401 654,470.4490117663546 752,479.54478959225656 850,479.88717035549996 948,466.77849180500294 1046,443.0954922557224 1144,417.66939591777765 1144,540" fill="#1BA559" opacity=".12"/><polyline points="262,504 360,479.3060129500472 458,464.012545369326 556,462.2266079908401 654,470.4490117663546 752,479.54478959225656 850,479.88717035549996 948,466.77849180500294 1046,443.0954922557224 1144,417.66939591777765" fill="none" stroke="#1BA559" stroke-width="4" stroke-linecap="round" stroke-linejoin="round"/><circle cx="262" cy="504" r="5" fill="#1E50E0"/><circle cx="360" cy="479.3060129500472" r="5" fill="#1E50E0"/><circle cx="458" cy="464.012545369326" r="5" fill="#1E50E0"/><circle cx="556" cy="462.2266079908401" r="5" fill="#1E50E0"/><circle cx="654" cy="470.4490117663546" r="5" fill="#1E50E0"/><circle cx="752" cy="479.54478959225656" r="5" fill="#1E50E0"/><circle cx="850" cy="479.88717035549996" r="5" fill="#1E50E0"/><circle cx="948" cy="466.77849180500294" r="5" fill="#1E50E0"/><circle cx="1046" cy="443.0954922557224" r="5" fill="#1E50E0"/><circle cx="1144" cy="417.66939591777765" r="5" fill="#1E50E0"/>
</svg>