<svg xmlns="http://www.w3.org/2000/svg" viewBox="0 0 1200 750" role="img" aria-label="Professor">
  <rect width="1200" height="750" fill="#F6F8FB"/>
  <!-- sidebar -->
  <rect x="0" y="0" width="200" height="750" fill="#0B1033"/>
  <rect x="24" y="28" width="30" height="30" rx="8" fill="#FFC400"/>
  <rect x="62" y="36" width="86" height="14" rx="7" fill="#FFFFFF" opacity=".92"/>
  
      <rect x="28" y="104" width="16" height="16" rx="4" fill="#FFFFFF" opacity=".45"/>
      <rect x="54" y="106" width="84" height="12" rx="6" fill="#FFFFFF" opacity=".4"/><rect x="14" y="142" width="172" height="40" rx="10" fill="#FFFFFF" opacity=".12"/>
      <rect x="28" y="154" width="16" height="16" rx="4" fill="#FFFFFF" opacity=".95"/>
      <rect x="54" y="156" width="104" height="12" rx="6" fill="#FFFFFF" opacity=".95"/>
      <rect x="28" y="204" width="16" height="16" rx="4" fill="#FFFFFF" opacity=".45"/>
      <rect x="54" y="206" width="84" height="12" rx="6" fill="#FFFFFF" opacity=".4"/>
      <rect x="28" y="254" width="16" height="16" rx="4" fill="#FFFFFF" opacity=".45"/>
      <rect x="54" y="256" width="84" height="12" rx="6" fill="#FFFFFF" opacity=".4"/>
      <rect x="28" y="304" width="16" height="16" rx="4" fill="#FFFFFF" opacity=".45"/>
      <rect x="54" y="306" width="84" height="12" rx="6" fill="#FFFFFF" opacity=".4"/>
  <rect x="24" y="690" width="152" height="36" rx="10" fill="#FFFFFF" opacity=".10"/>
  <!-- topbar -->
  <rect x="200" y="0" width="1000" height="72" fill="#FFFFFF"/>
  <line x1="200" y1="72" x2="1200" y2="72" stroke="#E4E7EC"/>
  <text x="232" y="44" font-family="Verdana, sans-serif" font-size="20" font-weight="700" fill="#0B1033">Professor</text>
  <rect x="970" y="24" width="120" height="26" rx="13" fill="#1BA559" opacity=".12"/>
  <circle cx="1130" cy="36" r="16" fill="#1BA559"/>
  <text x="232" y="116" font-family="Verdana, sans-serif" font-size="22" font-weight="800" fill="#0B1033">Para corrigir</text><rect x="392" y="98" width="44" height="26" rx="13" fill="#FFC400"/><text x="404" y="116" font-family="Verdana, sans-serif" font-size="14" font-weight="700" fill="#0B1033">12</text><rect x="224" y="150" width="560" height="360" rx="16" fill="#FFFFFF" stroke="#E4E7EC"/><rect x="244" y="174" width="520" height="64" rx="12" fill="#FFFFFF" stroke="#E4E7EC"/><circle cx="280" cy="206" r="18" fill="#FFC400" opacity=".18"/><circle cx="280" cy="206" r="9" fill="#FFC400"/><text x="312" y="202" font-family="Verdana, sans-serif" font-size="14" font-weight="700" fill="#0B1033">Redação · 3º A</text><text x="312" y="222" font-family="Verdana, sans-serif" font-size="12" font-weight="400" fill="#475569">32 alunos</text><rect x="640" y="192" width="104" height="28" rx="14" fill="#FFC400"/><text x="692" y="211" text-anchor="middle" font-family="Verdana, sans-serif" font-size="12" font-weight="700" fill="#FFFFFF">Pendente</text><rect x="244" y="254" width="520" height="64" rx="12" fill="#FFFFFF" stroke="#E4E7EC"/><circle cx="280" cy="286" r="18" fill="#1E50E0" opacity=".18"/><circle cx="280" cy="286" r="9" fill="#1E50E0"/><text x="312" y="282" font-family="Verdana, sans-serif" font-size="14" font-weight="700" fill="#0B1033">Prova Mat · 2º B</text><text x="312" y="302" font-family="Verdana, sans-serif" font-size="12" font-weight="400" fill="#475569">32 alunos</text><rect x="640" y="272" width="104" height="28" rx="14" fill="#1E50E0"/><text x="692" y="291" text-anchor="middle" font-family="Verdana, sans-serif" font-size="12" font-weight="700" fill="#FFFFFF">Corrigindo</text><rect x="244" y="334" width="520" height="64" rx="12" fill="#FFFFFF" stroke="#E4E7EC"/><circle cx="280" cy="366" r="18" fill="#FFC400" opacity=".18"/><circle cx="280" cy="366" r="9" fill="#FFC400"/><text x="312" y="362" font-family="Verdana, sans-serif" font-size="14" font-weight="700" fill="#0B1033">Redação · 3º C</text><text x="312" y="382" font-family="Verdana, sans-serif" font-size="12" font-weight="400" fill="#475569">32 alunos</text><rect x="640" y="352" width="104" height="28" rx="14" fill="#FFC400"/><text x="692" y="371" text-anchor="middle" font-family="Verdana, sans-serif" font-size="12" font-weight="700" fill="#FFFFFF">Pendente</text><rect x="244" y="414" width="520" height="64" rx="12" fill="#FFFFFF" stroke="#E4E7EC"/><circle cx="280" cy="446" r="18" fill="#1BA559" opacity=".18"/><circle cx="280" cy="446" r="9" fill="#1BA559"/><text x="312" y="442" font-family="Verdana, sans-serif" font-size="14" font-weight="700" fill="#0B1033">Prova Lab · 1º A</text><text x="312" y="462" font-family="Verdana, sans-serif" font-size="12" font-weight="400" fill="#475569">32 alunos</text><rect x="640" y="432" width="104" height="28" rx="14" fill="#1BA559"/><text x="692" y="451" text-anchor="middle" font-family="Verdana, sans-serif" font-size="12" font-weight="700" fill="#FFFFFF">Concluído</text><rect x="808" y="150" width="368" height="360" rx="16" fill="#FFFFFF" stroke="#E4E7EC"/><text x="832" y="182" font-family="Verdana, sans-serif" font-size="15" font-weight="700" fill="#0B1033">Correção de redação</text><rect x="832" y="206" width="300" height="12" rx="6" fill="#E4E7EC"/><rect x="832" y="232" width="280" height="12" rx="6" fill="#FFC400"/><rect x="832" y="232" width="280" height="12" rx="6" fill="#FFC400"/><rect x="832" y="258" width="310" height="12" rx="6" fill="#E4E7EC"/><rect x="832" y="284" width="250" height="12" rx="6" fill="#E4E7EC"/><rect x="832" y="310" width="300" height="12" rx="6" fill="#E4E7EC"/><rect x="832" y="336" width="220" height="12" rx="6" fill="#E4E7EC"/><circle cx="900" cy="430" r="40" fill="none" stroke="#E4E7EC" stroke-width="10"/><circle cx="900" cy="430" r="40" fill="none" stroke="#1BA559" stroke-width="10" stroke-linecap="round" stroke-dasharray="251" stroke-dashoffset="40" transform="rotate(-90 900 430)"/><text x="900" y="437" text-anchor="middle" font-family="Verdana, sans-serif" font-size="20" font-weight="800" fill="#0B1033">920</text><text x="960" y="420" font-family="Verdana, sans-serif" font-size="13" font-weight="400" fill="#475569">Nota da</text><text x="960" y="440" font-family="Verdana, sans-serif" font-size="13" font-weight="600" fill="#0B1033">redação (IA + revisor)</text>
</svg>