<svg xmlns="http://www.w3.org/2000/svg" viewBox="0 0 1200 750" role="img" aria-label="Rede de ensino">
  <rect width="1200" height="750" fill="#F6F8FB"/>
  <!-- sidebar -->
  <rect x="0" y="0" width="200" height="750" fill="#0B1033"/>
  <rect x="24" y="28" width="30" height="30" rx="8" fill="#FFC400"/>
  <rect x="62" y="36" width="86" height="14" rx="7" fill="#FFFFFF" opacity=".92"/>
  
      <rect x="28" y="104" width="16" height="16" rx="4" fill="#FFFFFF" opacity=".45"/>
      <rect x="54" y="106" width="84" height="12" rx="6" fill="#FFFFFF" opacity=".4"/>
      <rect x="28" y="154" width="16" height="16" rx="4" fill="#FFFFFF" opacity=".45"/>
      <rect x="54" y="156" width="84" height="12" rx="6" fill="#FFFFFF" opacity=".4"/>
      <rect x="28" y="204" width="16" height="16" rx="4" fill="#FFFFFF" opacity=".45"/>
      <rect x="54" y="206" width="84" height="12" rx="6" fill="#FFFFFF" opacity=".4"/>
      <rect x="28" y="254" width="16" height="16" rx="4" fill="#FFFFFF" opacity=".45"/>
      <rect x="54" y="256" width="84" height="12" rx="6" fill="#FFFFFF" opacity=".4"/><rect x="14" y="292" width="172" height="40" rx="10" fill="#FFFFFF" opacity=".12"/>
      <rect x="28" y="304" width="16" height="16" rx="4" fill="#FFFFFF" opacity=".95"/>
      <rect x="54" y="306" width="104" height="12" rx="6" fill="#FFFFFF" opacity=".95"/>
  <rect x="24" y="690" width="152" height="36" rx="10" fill="#FFFFFF" opacity=".10"/>
  <!-- topbar -->
  <rect x="200" y="0" width="1000" height="72" fill="#FFFFFF"/>
  <line x1="200" y1="72" x2="1200" y2="72" stroke="#E4E7EC"/>
  <text x="232" y="44" font-family="Verdana, sans-serif" font-size="20" font-weight="700" fill="#0B1033">Rede de ensino</text>
  <rect x="970" y="24" width="120" height="26" rx="13" fill="#1E50E0" opacity=".12"/>
  <circle cx="1130" cy="36" r="16" fill="#1E50E0"/>
  <text x="232" y="116" font-family="Verdana, sans-serif" font-size="22" font-weight="800" fill="#0B1033">Rede · 8 unidades</text><rect x="224" y="150" width="620" height="420" rx="16" fill="#FFFFFF" stroke="#E4E7EC"/><text x="248" y="184" font-family="Verdana, sans-serif" font-size="14" font-weight="600" fill="#475569">Desempenho por unidade</text><text x="248" y="214" font-family="Verdana, sans-serif" font-size="14" font-weight="600" fill="#0B1033">Unidade Centro</text><rect x="248" y="226" width="560" height="16" rx="8" fill="#F6F8FB"/><rect x="248" y="226" width="481.59999999999997" height="16" rx="8" fill="#1BA559"/><text x="816" y="239" text-anchor="end" font-family="Verdana, sans-serif" font-size="13" font-weight="700" fill="#0B1033">86%</text><text x="248" y="280" font-family="Verdana, sans-serif" font-size="14" font-weight="600" fill="#0B1033">Unidade Norte</text><rect x="248" y="292" width="560" height="16" rx="8" fill="#F6F8FB"/><rect x="248" y="292" width="403.2" height="16" rx="8" fill="#1E50E0"/><text x="816" y="305" text-anchor="end" font-family="Verdana, sans-serif" font-size="13" font-weight="700" fill="#0B1033">72%</text><text x="248" y="346" font-family="Verdana, sans-serif" font-size="14" font-weight="600" fill="#0B1033">Unidade Sul</text><rect x="248" y="358" width="560" height="16" rx="8" fill="#F6F8FB"/><rect x="248" y="358" width="358.40000000000003" height="16" rx="8" fill="#1BA559"/><text x="816" y="371" text-anchor="end" font-family="Verdana, sans-serif" font-size="13" font-weight="700" fill="#0B1033">64%</text><text x="248" y="412" font-family="Verdana, sans-serif" font-size="14" font-weight="600" fill="#0B1033">Unidade Leste</text><rect x="248" y="424" width="560" height="16" rx="8" fill="#F6F8FB"/><rect x="248" y="424" width="509.6" height="16" rx="8" fill="#1E50E0"/><text x="816" y="437" text-anchor="end" font-family="Verdana, sans-serif" font-size="13" font-weight="700" fill="#0B1033">91%</text><text x="248" y="478" font-family="Verdana, sans-serif" font-size="14" font-weight="600" fill="#0B1033">Unidade Oeste</text><rect x="248" y="490" width="560" height="16" rx="8" fill="#F6F8FB"/><rect x="248" y="490" width="324.79999999999995" height="16" rx="8" fill="#1BA559"/><text x="816" y="503" text-anchor="end" font-family="Verdana, sans-serif" font-size="13" font-weight="700" fill="#0B1033">58%</text><rect x="868" y="150" width="308" height="420" rx="16" fill="#FFFFFF" stroke="#E4E7EC"/><text x="892" y="184" font-family="Verdana, sans-serif" font-size="14" font-weight="700" fill="#0B1033">Consolidado da rede</text><line x1="1022" y1="280" x2="952" y2="360" stroke="#E4E7EC" stroke-width="3"/><line x1="1022" y1="280" x2="1092" y2="360" stroke="#E4E7EC" stroke-width="3"/><line x1="1022" y1="280" x2="922" y2="460" stroke="#E4E7EC" stroke-width="3"/><line x1="1022" y1="280" x2="1022" y2="460" stroke="#E4E7EC" stroke-width="3"/><line x1="1022" y1="280" x2="1122" y2="460" stroke="#E4E7EC" stroke-width="3"/><circle cx="1022" cy="280" r="22" fill="#1E50E0"/><circle cx="952" cy="360" r="14" fill="#1BA559"/><circle cx="1092" cy="360" r="14" fill="#1BA559"/><circle cx="922" cy="460" r="14" fill="#1BA559"/><circle cx="1022" cy="460" r="14" fill="#1BA559"/><circle cx="1122" cy="460" r="14" fill="#1BA559"/><text x="1022" y="524" text-anchor="middle" font-family="Verdana, sans-serif" font-size="13" fill="#475569">3.1M alunos · 8 unidades</text>
</svg>