<svg xmlns="http://www.w3.org/2000/svg" viewBox="0 0 1200 750" role="img" aria-label="Coordenação">
  <rect width="1200" height="750" fill="#F6F8FB"/>
  <!-- sidebar -->
  <rect x="0" y="0" width="200" height="750" fill="#0B1033"/>
  <rect x="24" y="28" width="30" height="30" rx="8" fill="#FFC400"/>
  <rect x="62" y="36" width="86" height="14" rx="7" fill="#FFFFFF" opacity=".92"/>
  
      <rect x="28" y="104" width="16" height="16" rx="4" fill="#FFFFFF" opacity=".45"/>
      <rect x="54" y="106" width="84" height="12" rx="6" fill="#FFFFFF" opacity=".4"/>
      <rect x="28" y="154" width="16" height="16" rx="4" fill="#FFFFFF" opacity=".45"/>
      <rect x="54" y="156" width="84" height="12" rx="6" fill="#FFFFFF" opacity=".4"/><rect x="14" y="192" width="172" height="40" rx="10" fill="#FFFFFF" opacity=".12"/>
      <rect x="28" y="204" width="16" height="16" rx="4" fill="#FFFFFF" opacity=".95"/>
      <rect x="54" y="206" width="104" height="12" rx="6" fill="#FFFFFF" opacity=".95"/>
      <rect x="28" y="254" width="16" height="16" rx="4" fill="#FFFFFF" opacity=".45"/>
      <rect x="54" y="256" width="84" height="12" rx="6" fill="#FFFFFF" opacity=".4"/>
      <rect x="28" y="304" width="16" height="16" rx="4" fill="#FFFFFF" opacity=".45"/>
      <rect x="54" y="306" width="84" height="12" rx="6" fill="#FFFFFF" opacity=".4"/>
  <rect x="24" y="690" width="152" height="36" rx="10" fill="#FFFFFF" opacity=".10"/>
  <!-- topbar -->
  <rect x="200" y="0" width="1000" height="72" fill="#FFFFFF"/>
  <line x1="200" y1="72" x2="1200" y2="72" stroke="#E4E7EC"/>
  <text x="232" y="44" font-family="Verdana, sans-serif" font-size="20" font-weight="700" fill="#0B1033">Coordenação</text>
  <rect x="970" y="24" width="120" height="26" rx="13" fill="#1E50E0" opacity=".12"/>
  <circle cx="1130" cy="36" r="16" fill="#FFC400"/>
  <text x="232" y="116" font-family="Verdana, sans-serif" font-size="22" font-weight="800" fill="#0B1033">Desempenho por turma</text><rect x="224" y="150" width="620" height="420" rx="16" fill="#FFFFFF" stroke="#E4E7EC"/><text x="248" y="184" font-family="Verdana, sans-serif" font-size="14" font-weight="600" fill="#475569">Média por turma (TRI)</text><rect x="270" y="200" width="52" height="320" rx="8" fill="#FFC400"/><text x="274" y="544" font-family="Verdana, sans-serif" font-size="12" font-weight="400" fill="#475569">3º A</text><rect x="362" y="270" width="52" height="250" rx="8" fill="#1E50E0"/><text x="366" y="544" font-family="Verdana, sans-serif" font-size="12" font-weight="400" fill="#475569">3º B</text><rect x="454" y="140" width="52" height="380" rx="8" fill="#1BA559"/><text x="458" y="544" font-family="Verdana, sans-serif" font-size="12" font-weight="400" fill="#475569">3º C</text><rect x="546" y="310" width="52" height="210" rx="8" fill="#FFC400"/><text x="550" y="544" font-family="Verdana, sans-serif" font-size="12" font-weight="400" fill="#475569">3º D</text><rect x="638" y="220" width="52" height="300" rx="8" fill="#1BA559"/><text x="642" y="544" font-family="Verdana, sans-serif" font-size="12" font-weight="400" fill="#475569">3º E</text><rect x="730" y="250" width="52" height="270" rx="8" fill="#1E50E0"/><text x="734" y="544" font-family="Verdana, sans-serif" font-size="12" font-weight="400" fill="#475569">3º F</text><rect x="868" y="150" width="308" height="122" rx="16" fill="#FFFFFF" stroke="#E4E7EC"/><rect x="892" y="178" width="8" height="36" rx="4" fill="#1E50E0"/><text x="912" y="194" font-family="Verdana, sans-serif" font-size="13" font-weight="400" fill="#475569">Turmas ativas</text><text x="912" y="236" font-family="Verdana, sans-serif" font-size="30" font-weight="800" fill="#0B1033">18</text><rect x="868" y="292" width="308" height="122" rx="16" fill="#FFFFFF" stroke="#E4E7EC"/><rect x="892" y="320" width="8" height="36" rx="4" fill="#1BA559"/><text x="912" y="336" font-family="Verdana, sans-serif" font-size="13" font-weight="400" fill="#475569">Acima da média</text><text x="912" y="378" font-family="Verdana, sans-serif" font-size="30" font-weight="800" fill="#0B1033">62%</text><rect x="868" y="434" width="308" height="122" rx="16" fill="#FFFFFF" stroke="#E4E7EC"/><rect x="892" y="462" width="8" height="36" rx="4" fill="#FFC400"/><text x="912" y="478" font-family="Verdana, sans-serif" font-size="13" font-weight="400" fill="#475569">Para reforço</text><text x="912" y="520" font-family="Verdana, sans-serif" font-size="30" font-weight="800" fill="#0B1033">4 turmas</text>
</svg>