<svg xmlns="http://www.w3.org/2000/svg" viewBox="0 0 1200 750" role="img" aria-label="Criar prova">
  <rect width="1200" height="750" fill="#F6F8FB"/>
  <!-- sidebar -->
  <rect x="0" y="0" width="200" height="750" fill="#0B1033"/>
  <rect x="24" y="28" width="30" height="30" rx="8" fill="#FFC400"/>
  <rect x="62" y="36" width="86" height="14" rx="7" fill="#FFFFFF" opacity=".92"/>
  
      <rect x="28" y="104" width="16" height="16" rx="4" fill="#FFFFFF" opacity=".45"/>
      <rect x="54" y="106" width="84" height="12" rx="6" fill="#FFFFFF" opacity=".4"/><rect x="14" y="142" width="172" height="40" rx="10" fill="#FFFFFF" opacity=".12"/>
      <rect x="28" y="154" width="16" height="16" rx="4" fill="#FFFFFF" opacity=".95"/>
      <rect x="54" y="156" width="104" height="12" rx="6" fill="#FFFFFF" opacity=".95"/>
      <rect x="28" y="204" width="16" height="16" rx="4" fill="#FFFFFF" opacity=".45"/>
      <rect x="54" y="206" width="84" height="12" rx="6" fill="#FFFFFF" opacity=".4"/>
      <rect x="28" y="254" width="16" height="16" rx="4" fill="#FFFFFF" opacity=".45"/>
      <rect x="54" y="256" width="84" height="12" rx="6" fill="#FFFFFF" opacity=".4"/>
      <rect x="28" y="304" width="16" height="16" rx="4" fill="#FFFFFF" opacity=".45"/>
      <rect x="54" y="306" width="84" height="12" rx="6" fill="#FFFFFF" opacity=".4"/>
  <rect x="24" y="690" width="152" height="36" rx="10" fill="#FFFFFF" opacity=".10"/>
  <!-- topbar -->
  <rect x="200" y="0" width="1000" height="72" fill="#FFFFFF"/>
  <line x1="200" y1="72" x2="1200" y2="72" stroke="#E4E7EC"/>
  <text x="232" y="44" font-family="Verdana, sans-serif" font-size="20" font-weight="700" fill="#0B1033">Criar prova</text>
  <rect x="970" y="24" width="120" height="26" rx="13" fill="#1BA559" opacity=".12"/>
  <circle cx="1130" cy="36" r="16" fill="#1BA559"/>
  <text x="232" y="116" font-family="Verdana, sans-serif" font-size="20" font-weight="800" fill="#0B1033">Nova prova · Matemática · 3º A</text><rect x="224" y="150" width="600" height="420" rx="16" fill="#FFFFFF" stroke="#E4E7EC"/><rect x="244" y="174" width="560" height="116" rx="12" fill="#FFFFFF" stroke="#E4E7EC"/><rect x="244" y="174" width="6" height="116" rx="3" fill="#1BA559"/><text x="272" y="204" font-family="Verdana, sans-serif" font-size="14" font-weight="700" fill="#0B1033">Questão 1</text><rect x="272" y="218" width="500" height="10" rx="5" fill="#E4E7EC"/><rect x="272" y="236" width="440" height="10" rx="5" fill="#E4E7EC"/><circle cx="284" cy="266" r="8" fill="none" stroke="#E4E7EC" stroke-width="2"/><circle cx="284" cy="266" r="4" fill="#1BA559"/><circle cx="354" cy="266" r="8" fill="none" stroke="#E4E7EC" stroke-width="2"/><circle cx="424" cy="266" r="8" fill="none" stroke="#E4E7EC" stroke-width="2"/><circle cx="494" cy="266" r="8" fill="none" stroke="#E4E7EC" stroke-width="2"/><rect x="244" y="306" width="560" height="116" rx="12" fill="#FFFFFF" stroke="#E4E7EC"/><rect x="244" y="306" width="6" height="116" rx="3" fill="#1E50E0"/><text x="272" y="336" font-family="Verdana, sans-serif" font-size="14" font-weight="700" fill="#0B1033">Questão 2</text><rect x="272" y="350" width="500" height="10" rx="5" fill="#E4E7EC"/><rect x="272" y="368" width="440" height="10" rx="5" fill="#E4E7EC"/><circle cx="284" cy="398" r="8" fill="none" stroke="#E4E7EC" stroke-width="2"/><circle cx="354" cy="398" r="8" fill="none" stroke="#E4E7EC" stroke-width="2"/><circle cx="354" cy="398" r="4" fill="#1BA559"/><circle cx="424" cy="398" r="8" fill="none" stroke="#E4E7EC" stroke-width="2"/><circle cx="494" cy="398" r="8" fill="none" stroke="#E4E7EC" stroke-width="2"/><rect x="244" y="438" width="560" height="116" rx="12" fill="#FFFFFF" stroke="#E4E7EC"/><rect x="244" y="438" width="6" height="116" rx="3" fill="#FFC400"/><text x="272" y="468" font-family="Verdana, sans-serif" font-size="14" font-weight="700" fill="#0B1033">Questão 3</text><rect x="272" y="482" width="500" height="10" rx="5" fill="#E4E7EC"/><rect x="272" y="500" width="440" height="10" rx="5" fill="#E4E7EC"/><circle cx="284" cy="530" r="8" fill="none" stroke="#E4E7EC" stroke-width="2"/><circle cx="354" cy="530" r="8" fill="none" stroke="#E4E7EC" stroke-width="2"/><circle cx="424" cy="530" r="8" fill="none" stroke="#E4E7EC" stroke-width="2"/><circle cx="424" cy="530" r="4" fill="#1BA559"/><circle cx="494" cy="530" r="8" fill="none" stroke="#E4E7EC" stroke-width="2"/><rect x="848" y="150" width="328" height="420" rx="16" fill="#FFFFFF" stroke="#E4E7EC"/><text x="872" y="184" font-family="Verdana, sans-serif" font-size="15" font-weight="700" fill="#0B1033">Gerar com IA</text><rect x="872" y="204" width="280" height="92" rx="12" fill="#FFFFFF" stroke="#E4E7EC"/><text x="892" y="232" font-family="Verdana, sans-serif" font-size="12" font-weight="400" fill="#475569">Gere 10 questões de</text><text x="892" y="252" font-family="Verdana, sans-serif" font-size="12" font-weight="400" fill="#475569">funções do 2º grau,</text><text x="892" y="272" font-family="Verdana, sans-serif" font-size="12" font-weight="400" fill="#475569">nível médio</text><rect x="872" y="312" width="280" height="46" rx="23" fill="#FFC400"/><text x="942" y="340" font-family="Verdana, sans-serif" font-size="13" font-weight="700" fill="#0B1033">✨ Gerar questões</text><rect x="872" y="378" width="280" height="34" rx="10" fill="#FFFFFF" stroke="#E4E7EC"/><text x="892" y="400" font-family="Verdana, sans-serif" font-size="12" font-weight="400" fill="#475569">Banco de Itens</text><circle cx="1128" cy="395" r="9" fill="#1BA559" opacity=".2"/><circle cx="1128" cy="395" r="4" fill="#1BA559"/><rect x="872" y="422" width="280" height="34" rx="10" fill="#FFFFFF" stroke="#E4E7EC"/><text x="892" y="444" font-family="Verdana, sans-serif" font-size="12" font-weight="400" fill="#475569">Dificuldade</text><circle cx="1128" cy="439" r="9" fill="#1BA559" opacity=".2"/><circle cx="1128" cy="439" r="4" fill="#1BA559"/><rect x="872" y="466" width="280" height="34" rx="10" fill="#FFFFFF" stroke="#E4E7EC"/><text x="892" y="488" font-family="Verdana, sans-serif" font-size="12" font-weight="400" fill="#475569">Habilidade BNCC</text><circle cx="1128" cy="483" r="9" fill="#1BA559" opacity=".2"/><circle cx="1128" cy="483" r="4" fill="#1BA559"/>
</svg>