<svg xmlns="http://www.w3.org/2000/svg" viewBox="0 0 1200 750" role="img" aria-label="OCR: da redação manuscrita à correção">
  <rect width="1200" height="750" fill="#F6F8FB"/>
  <g transform="rotate(-4 360 420)">
    <rect x="120" y="150" width="430" height="520" rx="14" fill="#FFFFFF" stroke="#E4E7EC"/>
    <rect x="120" y="150" width="430" height="54" rx="14" fill="#1BA559" opacity=".12"/>
    <text x="150" y="184" font-family="Verdana,sans-serif" font-size="16" font-weight="700" fill="#0B1033">Redação manuscrita</text>
    <path d="M 150 244 L 170.6 248.5 L 191.3 243.7 L 211.9 239.5 L 232.5 244.5 L 253.1 248.5 L 273.8 243.2 L 294.4 239.6 L 315.0 245.0 L 335.6 248.3 L 356.3 242.7 L 376.9 239.7 L 397.5 245.5 L 418.1 248.2 L 438.8 242.2 L 459.4 239.9 L 480.0 246.0" fill="none" stroke="#33415C" stroke-width="3" stroke-linecap="round" opacity="0.9"/><path d="M 150 278 L 170.6 281.0 L 191.3 274.6 L 211.9 275.2 L 232.5 281.6 L 253.1 280.6 L 273.8 274.3 L 294.4 275.6 L 315.0 281.9 L 335.6 280.2 L 356.3 274.0 L 376.9 276.0 L 397.5 282.1 L 418.1 279.7 L 438.8 273.8 L 459.4 276.5 L 480.0 282.3" fill="none" stroke="#33415C" stroke-width="3" stroke-linecap="round" opacity="0.9"/><path d="M 150 312 L 170.6 311.7 L 191.3 307.5 L 211.9 312.5 L 232.5 316.5 L 253.1 311.2 L 273.8 307.6 L 294.4 313.0 L 315.0 316.3 L 335.6 310.7 L 356.3 307.7 L 376.9 313.5 L 397.5 316.2 L 418.1 310.2 L 438.8 307.9 L 459.4 314.0 L 480.0 316.0" fill="none" stroke="#33415C" stroke-width="3" stroke-linecap="round" opacity="0.9"/><path d="M 150 346 L 170.6 342.6 L 191.3 343.2 L 211.9 349.6 L 232.5 348.6 L 253.1 342.3 L 273.8 343.6 L 294.4 349.9 L 315.0 348.2 L 335.6 342.0 L 356.3 344.0 L 376.9 350.1 L 397.5 347.7 L 418.1 341.8 L 438.8 344.5 L 459.4 350.3 L 480.0 347.2" fill="none" stroke="#33415C" stroke-width="3" stroke-linecap="round" opacity="0.9"/><path d="M 150 380 L 170.6 375.5 L 191.3 380.5 L 211.9 384.5 L 232.5 379.2 L 253.1 375.6 L 273.8 381.0 L 294.4 384.3 L 315.0 378.7 L 335.6 375.7 L 356.3 381.5 L 376.9 384.2 L 397.5 378.2 L 418.1 375.9 L 438.8 382.0 L 459.4 384.0 L 480.0 377.7" fill="none" stroke="#33415C" stroke-width="3" stroke-linecap="round" opacity="0.9"/><path d="M 150 414 L 170.6 411.2 L 191.3 417.6 L 211.9 416.6 L 232.5 410.3 L 253.1 411.6 L 273.8 417.9 L 294.4 416.2 L 315.0 410.0 L 335.6 412.0 L 356.3 418.1 L 376.9 415.7 L 397.5 409.8 L 418.1 412.5 L 438.8 418.3 L 459.4 415.2 L 480.0 409.6" fill="none" stroke="#33415C" stroke-width="3" stroke-linecap="round" opacity="0.9"/><path d="M 150 448 L 170.6 448.5 L 191.3 452.5 L 211.9 447.2 L 232.5 443.6 L 253.1 449.0 L 273.8 452.3 L 294.4 446.7 L 315.0 443.7 L 335.6 449.5 L 356.3 452.2 L 376.9 446.2 L 397.5 443.9 L 418.1 450.0 L 438.8 452.0 L 459.4 445.7 L 480.0 444.2" fill="none" stroke="#33415C" stroke-width="3" stroke-linecap="round" opacity="0.9"/><path d="M 150 482 L 170.6 485.6 L 191.3 484.6 L 211.9 478.3 L 232.5 479.6 L 253.1 485.9 L 273.8 484.2 L 294.4 478.0 L 315.0 480.0 L 335.6 486.1 L 356.3 483.7 L 376.9 477.8 L 397.5 480.5 L 418.1 486.3 L 438.8 483.2 L 459.4 477.6 L 480.0 481.0" fill="none" stroke="#33415C" stroke-width="3" stroke-linecap="round" opacity="0.9"/><path d="M 150 516 L 170.6 520.5 L 191.3 515.2 L 211.9 511.6 L 232.5 517.0 L 253.1 520.3 L 273.8 514.7 L 294.4 511.7 L 315.0 517.5 L 335.6 520.2 L 356.3 514.2 L 376.9 511.9 L 397.5 518.0 L 418.1 520.0 L 438.8 513.7 L 459.4 512.2 L 480.0 518.5" fill="none" stroke="#33415C" stroke-width="3" stroke-linecap="round" opacity="0.9"/><path d="M 150 550 L 170.6 552.6 L 191.3 546.3 L 211.9 547.6 L 232.5 553.9 L 253.1 552.2 L 273.8 546.0 L 294.4 548.0 L 315.0 554.1 L 335.6 551.7 L 356.3 545.8 L 376.9 548.5 L 397.5 554.3 L 418.1 551.2 L 438.8 545.6 L 459.4 549.0 L 480.0 554.4" fill="none" stroke="#33415C" stroke-width="3" stroke-linecap="round" opacity="0.9"/><path d="M 150 584 L 161.3 583.2 L 172.5 579.6 L 183.8 585.0 L 195.0 588.3 L 206.3 582.7 L 217.5 579.7 L 228.8 585.5 L 240.0 588.2 L 251.3 582.2 L 262.5 579.9 L 273.8 586.0 L 285.0 588.0 L 296.3 581.7 L 307.5 580.2 L 318.8 586.5 L 330.0 587.7" fill="none" stroke="#33415C" stroke-width="3" stroke-linecap="round" opacity="0.45"/>
    <g stroke="#FFC400" stroke-width="4" fill="none" stroke-linecap="round">
      <path d="M150 612 h-24 v-24"/><path d="M520 612 h24 v-24"/>
      <path d="M150 612 h-24 v-24"/>
    </g>
  </g>
  <circle cx="156" cy="156" r="26" fill="#0B1033"/>
  <circle cx="156" cy="156" r="9" fill="#FFFFFF" opacity=".9"/>
  <g>
    <rect x="566" y="384" width="118" height="50" rx="25" fill="#0B1033"/>
    <text x="625" y="415" text-anchor="middle" font-family="Verdana,sans-serif" font-size="17" font-weight="800" fill="#FFFFFF">OCR</text>
    <path d="M576 470 h98 m-16 -10 l16 10 -16 10" stroke="#1E50E0" stroke-width="4" fill="none" stroke-linecap="round" stroke-linejoin="round"/>
  </g>
  <rect x="690" y="150" width="430" height="470" rx="16" fill="#FFFFFF" stroke="#E4E7EC"/>
  <text x="720" y="196" font-family="Verdana,sans-serif" font-size="16" font-weight="700" fill="#0B1033">Texto digitalizado + correção</text>
  <rect x="720" y="236" width="320" height="12" rx="6" fill="#E4E7EC"/><rect x="720" y="266" width="360" height="12" rx="6" fill="#E4E7EC"/><rect x="720" y="296" width="300" height="12" rx="6" fill="#E4E7EC"/><rect x="720" y="326" width="340" height="12" rx="6" fill="#E4E7EC"/><rect x="720" y="356" width="270" height="12" rx="6" fill="#E4E7EC"/><rect x="720" y="386" width="320" height="12" rx="6" fill="#E4E7EC"/>
  <line x1="720" y1="430" x2="1092" y2="430" stroke="#E4E7EC"/>
  <text x="720" y="464" font-family="Verdana,sans-serif" font-size="13" fill="#475569">C1</text><rect x="752" y="452" width="280" height="14" rx="7" fill="#F6F8FB"/><rect x="752" y="452" width="257.6" height="14" rx="7" fill="#1BA559"/><text x="1092" y="464" text-anchor="end" font-family="Verdana,sans-serif" font-size="12" font-weight="700" fill="#0B1033">184</text><text x="720" y="498" font-family="Verdana,sans-serif" font-size="13" fill="#475569">C2</text><rect x="752" y="486" width="280" height="14" rx="7" fill="#F6F8FB"/><rect x="752" y="486" width="235.2" height="14" rx="7" fill="#1E50E0"/><text x="1092" y="498" text-anchor="end" font-family="Verdana,sans-serif" font-size="12" font-weight="700" fill="#0B1033">168</text><text x="720" y="532" font-family="Verdana,sans-serif" font-size="13" fill="#475569">C3</text><rect x="752" y="520" width="280" height="14" rx="7" fill="#F6F8FB"/><rect x="752" y="520" width="246.4" height="14" rx="7" fill="#1BA559"/><text x="1092" y="532" text-anchor="end" font-family="Verdana,sans-serif" font-size="12" font-weight="700" fill="#0B1033">176</text><text x="720" y="566" font-family="Verdana,sans-serif" font-size="13" fill="#475569">C4</text><rect x="752" y="554" width="280" height="14" rx="7" fill="#F6F8FB"/><rect x="752" y="554" width="212.8" height="14" rx="7" fill="#1E50E0"/><text x="1092" y="566" text-anchor="end" font-family="Verdana,sans-serif" font-size="12" font-weight="700" fill="#0B1033">152</text><text x="720" y="600" font-family="Verdana,sans-serif" font-size="13" fill="#475569">C5</text><rect x="752" y="588" width="280" height="14" rx="7" fill="#F6F8FB"/><rect x="752" y="588" width="252" height="14" rx="7" fill="#1BA559"/><text x="1092" y="600" text-anchor="end" font-family="Verdana,sans-serif" font-size="12" font-weight="700" fill="#0B1033">180</text>
</svg>