<svg xmlns="http://www.w3.org/2000/svg" viewBox="0 0 1200 750" role="img" aria-label="Evolução por habilidade">
  <rect width="1200" height="750" fill="#F6F9F8"/>
  <!-- sidebar -->
  <rect x="0" y="0" width="220" height="750" fill="#0E6E4E"/>
  <rect x="28" y="32" width="34" height="34" rx="9" fill="#FFC400"/>
  <rect x="72" y="40" width="96" height="16" rx="6" fill="#FFFFFF" opacity=".9"/>
  <rect x="28" y="110" width="120" height="14" rx="7" fill="#FFFFFF" opacity=".4"/><rect x="28" y="158" width="150" height="14" rx="7" fill="#FFFFFF" opacity=".95"/><rect x="28" y="206" width="120" height="14" rx="7" fill="#FFFFFF" opacity=".4"/><rect x="28" y="254" width="120" height="14" rx="7" fill="#FFFFFF" opacity=".4"/><rect x="28" y="302" width="120" height="14" rx="7" fill="#FFFFFF" opacity=".4"/>
  <!-- topbar -->
  <rect x="220" y="0" width="980" height="72" fill="#FFFFFF"/>
  <line x1="220" y1="72" x2="1200" y2="72" stroke="#E3E8E6"/>
  <rect x="252" y="28" width="240" height="18" rx="9" fill="#0F1B17" opacity=".85"/>
  <rect x="1050" y="22" width="110" height="30" rx="15" fill="#FFC400"/>
  <rect x="252" y="104" width="916" height="540" rx="16" fill="#FFFFFF" stroke="#E3E8E6"/>
    <polyline points="300,380 400,286.2676113672893 500,262.16323158568866 600,313.29919927461196 700,376.1122245777135 800,376.30318471968246 900,297.14739483790333 1000,194.87120611530895 1100,146.95775780389567" fill="none" stroke="#1B9E6B" stroke-width="5" stroke-linecap="round" stroke-linejoin="round"/>
    <circle cx="300" cy="380" r="7" fill="#1456C4"/><circle cx="400" cy="286.2676113672893" r="7" fill="#1456C4"/><circle cx="500" cy="262.16323158568866" r="7" fill="#1456C4"/><circle cx="600" cy="313.29919927461196" r="7" fill="#1456C4"/><circle cx="700" cy="376.1122245777135" r="7" fill="#1456C4"/><circle cx="800" cy="376.30318471968246" r="7" fill="#1456C4"/><circle cx="900" cy="297.14739483790333" r="7" fill="#1456C4"/><circle cx="1000" cy="194.87120611530895" r="7" fill="#1456C4"/><circle cx="1100" cy="146.95775780389567" r="7" fill="#1456C4"/>
</svg>