<svg xmlns="http://www.w3.org/2000/svg" viewBox="0 0 1200 750" role="img" aria-label="Relatórios">
  <rect width="1200" height="750" fill="#F6F8FB"/>
  <!-- sidebar -->
  <rect x="0" y="0" width="200" height="750" fill="#0B1033"/>
  <rect x="24" y="28" width="30" height="30" rx="8" fill="#FFC400"/>
  <rect x="62" y="36" width="86" height="14" rx="7" fill="#FFFFFF" opacity=".92"/>
  
      <rect x="28" y="104" width="16" height="16" rx="4" fill="#FFFFFF" opacity=".45"/>
      <rect x="54" y="106" width="84" height="12" rx="6" fill="#FFFFFF" opacity=".4"/>
      <rect x="28" y="154" width="16" height="16" rx="4" fill="#FFFFFF" opacity=".45"/>
      <rect x="54" y="156" width="84" height="12" rx="6" fill="#FFFFFF" opacity=".4"/>
      <rect x="28" y="204" width="16" height="16" rx="4" fill="#FFFFFF" opacity=".45"/>
      <rect x="54" y="206" width="84" height="12" rx="6" fill="#FFFFFF" opacity=".4"/><rect x="14" y="242" width="172" height="40" rx="10" fill="#FFFFFF" opacity=".12"/>
      <rect x="28" y="254" width="16" height="16" rx="4" fill="#FFFFFF" opacity=".95"/>
      <rect x="54" y="256" width="104" height="12" rx="6" fill="#FFFFFF" opacity=".95"/>
      <rect x="28" y="304" width="16" height="16" rx="4" fill="#FFFFFF" opacity=".45"/>
      <rect x="54" y="306" width="84" height="12" rx="6" fill="#FFFFFF" opacity=".4"/>
  <rect x="24" y="690" width="152" height="36" rx="10" fill="#FFFFFF" opacity=".10"/>
  <!-- topbar -->
  <rect x="200" y="0" width="1000" height="72" fill="#FFFFFF"/>
  <line x1="200" y1="72" x2="1200" y2="72" stroke="#E4E7EC"/>
  <text x="232" y="44" font-family="Verdana, sans-serif" font-size="20" font-weight="700" fill="#0B1033">Relatórios</text>
  <rect x="970" y="24" width="120" height="26" rx="13" fill="#1BA559" opacity=".12"/>
  <circle cx="1130" cy="36" r="16" fill="#1BA559"/>
  <text x="232" y="116" font-family="Verdana, sans-serif" font-size="22" font-weight="800" fill="#0B1033">Relatórios consolidados</text><rect x="224" y="150" width="952" height="420" rx="16" fill="#FFFFFF" stroke="#E4E7EC"/><text x="252" y="188" font-family="Verdana, sans-serif" font-size="12" font-weight="700" fill="#475569">Turma</text><text x="560" y="188" font-family="Verdana, sans-serif" font-size="12" font-weight="700" fill="#475569">Média</text><text x="724" y="188" font-family="Verdana, sans-serif" font-size="12" font-weight="700" fill="#475569">Acima da média</text><text x="1060" y="188" font-family="Verdana, sans-serif" font-size="12" font-weight="700" fill="#475569">Evolução</text><line x1="248" y1="204" x2="1152" y2="204" stroke="#E4E7EC"/><text x="252" y="246" font-family="Verdana,sans-serif" font-size="15" font-weight="700" fill="#0B1033">3º A</text><text x="560" y="246" font-family="Verdana,sans-serif" font-size="15" font-weight="700" fill="#0B1033">742</text><rect x="724" y="234" width="300" height="14" rx="7" fill="#F6F8FB"/><rect x="724" y="234" width="204" height="14" rx="7" fill="#1BA559"/><text x="1152" y="246" text-anchor="end" font-family="Verdana,sans-serif" font-size="14" font-weight="700" fill="#1BA559">+12%</text><line x1="248" y1="272" x2="1152" y2="272" stroke="#E4E7EC"/><text x="252" y="310" font-family="Verdana,sans-serif" font-size="15" font-weight="700" fill="#0B1033">3º B</text><text x="560" y="310" font-family="Verdana,sans-serif" font-size="15" font-weight="700" fill="#0B1033">680</text><rect x="724" y="298" width="300" height="14" rx="7" fill="#F6F8FB"/><rect x="724" y="298" width="162" height="14" rx="7" fill="#1E50E0"/><text x="1152" y="310" text-anchor="end" font-family="Verdana,sans-serif" font-size="14" font-weight="700" fill="#1BA559">+8%</text><line x1="248" y1="336" x2="1152" y2="336" stroke="#E4E7EC"/><text x="252" y="374" font-family="Verdana,sans-serif" font-size="15" font-weight="700" fill="#0B1033">3º C</text><text x="560" y="374" font-family="Verdana,sans-serif" font-size="15" font-weight="700" fill="#0B1033">760</text><rect x="724" y="362" width="300" height="14" rx="7" fill="#F6F8FB"/><rect x="724" y="362" width="216" height="14" rx="7" fill="#1BA559"/><text x="1152" y="374" text-anchor="end" font-family="Verdana,sans-serif" font-size="14" font-weight="700" fill="#1BA559">+15%</text><line x1="248" y1="400" x2="1152" y2="400" stroke="#E4E7EC"/><text x="252" y="438" font-family="Verdana,sans-serif" font-size="15" font-weight="700" fill="#0B1033">2º A</text><text x="560" y="438" font-family="Verdana,sans-serif" font-size="15" font-weight="700" fill="#0B1033">655</text><rect x="724" y="426" width="300" height="14" rx="7" fill="#F6F8FB"/><rect x="724" y="426" width="147" height="14" rx="7" fill="#1E50E0"/><text x="1152" y="438" text-anchor="end" font-family="Verdana,sans-serif" font-size="14" font-weight="700" fill="#1BA559">+5%</text><line x1="248" y1="464" x2="1152" y2="464" stroke="#E4E7EC"/><text x="252" y="502" font-family="Verdana,sans-serif" font-size="15" font-weight="700" fill="#0B1033">2º B</text><text x="560" y="502" font-family="Verdana,sans-serif" font-size="15" font-weight="700" fill="#0B1033">705</text><rect x="724" y="490" width="300" height="14" rx="7" fill="#F6F8FB"/><rect x="724" y="490" width="183" height="14" rx="7" fill="#1BA559"/><text x="1152" y="502" text-anchor="end" font-family="Verdana,sans-serif" font-size="14" font-weight="700" fill="#1BA559">+9%</text>
</svg>