<svg xmlns="http://www.w3.org/2000/svg" viewBox="0 0 1200 750" role="img" aria-label="Resultado por TRI (régua ENEM/SAEB)">
  <rect width="1200" height="750" fill="#F6F9F8"/>
  <!-- sidebar -->
  <rect x="0" y="0" width="220" height="750" fill="#0E6E4E"/>
  <rect x="28" y="32" width="34" height="34" rx="9" fill="#FFC400"/>
  <rect x="72" y="40" width="96" height="16" rx="6" fill="#FFFFFF" opacity=".9"/>
  <rect x="28" y="110" width="120" height="14" rx="7" fill="#FFFFFF" opacity=".4"/><rect x="28" y="158" width="150" height="14" rx="7" fill="#FFFFFF" opacity=".95"/><rect x="28" y="206" width="120" height="14" rx="7" fill="#FFFFFF" opacity=".4"/><rect x="28" y="254" width="120" height="14" rx="7" fill="#FFFFFF" opacity=".4"/><rect x="28" y="302" width="120" height="14" rx="7" fill="#FFFFFF" opacity=".4"/>
  <!-- topbar -->
  <rect x="220" y="0" width="980" height="72" fill="#FFFFFF"/>
  <line x1="220" y1="72" x2="1200" y2="72" stroke="#E3E8E6"/>
  <rect x="252" y="28" width="240" height="18" rx="9" fill="#0F1B17" opacity=".85"/>
  <rect x="1050" y="22" width="110" height="30" rx="15" fill="#FFC400"/>
  <rect x="252" y="104" width="916" height="540" rx="16" fill="#FFFFFF" stroke="#E3E8E6"/>
    <path d="M 470 470 A 240 240 0 0 1 950 470" fill="none" stroke="#E3E8E6" stroke-width="34" stroke-linecap="round"/>
    <path d="M 470 470 A 240 240 0 0 1 880 300" fill="none" stroke="#1B9E6B" stroke-width="34" stroke-linecap="round"/>
    <text x="710" y="450" font-family="sans-serif" font-size="92" font-weight="800" fill="#0F1B17" text-anchor="middle">742</text>
    <rect x="630" y="500" width="160" height="20" rx="10" fill="#4A5B54" opacity=".4"/>
</svg>