<svg xmlns="http://www.w3.org/2000/svg" viewBox="0 0 1200 750" role="img" aria-label="Relatórios">
  <rect width="1200" height="750" fill="#F6F8FB"/>
  <!-- sidebar -->
  <rect x="0" y="0" width="200" height="750" fill="#0B1033"/>
  <rect x="24" y="28" width="30" height="30" rx="8" fill="#FFC400"/>
  <rect x="62" y="36" width="86" height="14" rx="7" fill="#FFFFFF" opacity=".92"/>
  
      <rect x="28" y="104" width="16" height="16" rx="4" fill="#FFFFFF" opacity=".45"/>
      <rect x="54" y="106" width="84" height="12" rx="6" fill="#FFFFFF" opacity=".4"/>
      <rect x="28" y="154" width="16" height="16" rx="4" fill="#FFFFFF" opacity=".45"/>
      <rect x="54" y="156" width="84" height="12" rx="6" fill="#FFFFFF" opacity=".4"/>
      <rect x="28" y="204" width="16" height="16" rx="4" fill="#FFFFFF" opacity=".45"/>
      <rect x="54" y="206" width="84" height="12" rx="6" fill="#FFFFFF" opacity=".4"/><rect x="14" y="242" width="172" height="40" rx="10" fill="#FFFFFF" opacity=".12"/>
      <rect x="28" y="254" width="16" height="16" rx="4" fill="#FFFFFF" opacity=".95"/>
      <rect x="54" y="256" width="104" height="12" rx="6" fill="#FFFFFF" opacity=".95"/>
      <rect x="28" y="304" width="16" height="16" rx="4" fill="#FFFFFF" opacity=".45"/>
      <rect x="54" y="306" width="84" height="12" rx="6" fill="#FFFFFF" opacity=".4"/>
  <rect x="24" y="690" width="152" height="36" rx="10" fill="#FFFFFF" opacity=".10"/>
  <!-- topbar -->
  <rect x="200" y="0" width="1000" height="72" fill="#FFFFFF"/>
  <line x1="200" y1="72" x2="1200" y2="72" stroke="#E4E7EC"/>
  <text x="232" y="44" font-family="Verdana, sans-serif" font-size="20" font-weight="700" fill="#0B1033">Relatórios</text>
  <rect x="970" y="24" width="120" height="26" rx="13" fill="#1BA559" opacity=".12"/>
  <circle cx="1130" cy="36" r="16" fill="#1E50E0"/>
  <text x="232" y="116" font-family="Verdana, sans-serif" font-size="22" font-weight="800" fill="#0B1033">Relatórios</text><rect x="224" y="150" width="220" height="108" rx="16" fill="#FFFFFF" stroke="#E4E7EC"/><text x="244" y="182" font-family="Verdana, sans-serif" font-size="12" font-weight="400" fill="#475569">Nota TRI média</text><text x="244" y="224" font-family="Verdana, sans-serif" font-size="28" font-weight="800" fill="#FFC400">742</text><rect x="464" y="150" width="220" height="108" rx="16" fill="#FFFFFF" stroke="#E4E7EC"/><text x="484" y="182" font-family="Verdana, sans-serif" font-size="12" font-weight="400" fill="#475569">Avaliações</text><text x="484" y="224" font-family="Verdana, sans-serif" font-size="28" font-weight="800" fill="#1E50E0">128</text><rect x="704" y="150" width="220" height="108" rx="16" fill="#FFFFFF" stroke="#E4E7EC"/><text x="724" y="182" font-family="Verdana, sans-serif" font-size="12" font-weight="400" fill="#475569">Acima da média</text><text x="724" y="224" font-family="Verdana, sans-serif" font-size="28" font-weight="800" fill="#1BA559">38%</text><rect x="944" y="150" width="220" height="108" rx="16" fill="#FFFFFF" stroke="#E4E7EC"/><text x="964" y="182" font-family="Verdana, sans-serif" font-size="12" font-weight="400" fill="#475569">Habilidades</text><text x="964" y="224" font-family="Verdana, sans-serif" font-size="28" font-weight="800" fill="#1BA559">62</text><rect x="224" y="282" width="380" height="290" rx="16" fill="#FFFFFF" stroke="#E4E7EC"/><text x="248" y="314" font-family="Verdana, sans-serif" font-size="14" font-weight="700" fill="#0B1033">Por competência</text><circle cx="350" cy="430" r="70" fill="none" stroke="#1BA559" stroke-width="26" stroke-dasharray="175.92918860102841 263.89378290154264" stroke-dashoffset="0" transform="rotate(-90 350 430)"/><circle cx="350" cy="430" r="70" fill="none" stroke="#1E50E0" stroke-width="26" stroke-dasharray="109.95574287564276 329.8672286269283" stroke-dashoffset="-175.92918860102841" transform="rotate(-90 350 430)"/><circle cx="350" cy="430" r="70" fill="none" stroke="#FFC400" stroke-width="26" stroke-dasharray="87.96459430051421 351.85837720205683" stroke-dashoffset="-285.88493147667117" transform="rotate(-90 350 430)"/><circle cx="350" cy="430" r="70" fill="none" stroke="#E4E7EC" stroke-width="26" stroke-dasharray="65.97344572538564 373.84952577718536" stroke-dashoffset="-373.84952577718536" transform="rotate(-90 350 430)"/><rect x="468" y="360" width="14" height="14" rx="4" fill="#1BA559"/><text x="492" y="372" font-family="Verdana, sans-serif" font-size="12" font-weight="400" fill="#475569">C1 · 40%</text><rect x="468" y="396" width="14" height="14" rx="4" fill="#1E50E0"/><text x="492" y="408" font-family="Verdana, sans-serif" font-size="12" font-weight="400" fill="#475569">C2 · 25%</text><rect x="468" y="432" width="14" height="14" rx="4" fill="#FFC400"/><text x="492" y="444" font-family="Verdana, sans-serif" font-size="12" font-weight="400" fill="#475569">C3 · 20%</text><rect x="468" y="468" width="14" height="14" rx="4" fill="#E4E7EC"/><text x="492" y="480" font-family="Verdana, sans-serif" font-size="12" font-weight="400" fill="#475569">C4 · 15%</text><rect x="624" y="282" width="552" height="290" rx="16" fill="#FFFFFF" stroke="#E4E7EC"/><text x="648" y="314" font-family="Verdana, sans-serif" font-size="14" font-weight="700" fill="#0B1033">Por turma</text><rect x="668" y="340" width="44" height="180" rx="8" fill="#FFC400"/><text x="674" y="544" font-family="Verdana, sans-serif" font-size="11" font-weight="400" fill="#475569">1º</text><rect x="738" y="390" width="44" height="130" rx="8" fill="#1E50E0"/><text x="744" y="544" font-family="Verdana, sans-serif" font-size="11" font-weight="400" fill="#475569">2º</text><rect x="808" y="310" width="44" height="210" rx="8" fill="#1BA559"/><text x="814" y="544" font-family="Verdana, sans-serif" font-size="11" font-weight="400" fill="#475569">3º</text><rect x="878" y="370" width="44" height="150" rx="8" fill="#FFC400"/><text x="884" y="544" font-family="Verdana, sans-serif" font-size="11" font-weight="400" fill="#475569">4º</text><rect x="948" y="330" width="44" height="190" rx="8" fill="#1BA559"/><text x="954" y="544" font-family="Verdana, sans-serif" font-size="11" font-weight="400" fill="#475569">5º</text><rect x="1018" y="400" width="44" height="120" rx="8" fill="#1E50E0"/><text x="1024" y="544" font-family="Verdana, sans-serif" font-size="11" font-weight="400" fill="#475569">6º</text><rect x="1088" y="350" width="44" height="170" rx="8" fill="#FFC400"/><text x="1094" y="544" font-family="Verdana, sans-serif" font-size="11" font-weight="400" fill="#475569">7º</text>
</svg>